<svg 
 xmlns="http://www.w3.org/2000/svg"
 xmlns:xlink="http://www.w3.org/1999/xlink"
 width="2000px" height="1830px">
<path fill-rule="evenodd"  fill="rgb(26, 26, 26)"
 d="M1001.422,257.264 C1002.89,283.108 997.35,296.293 990.601,308.275 C960.355,308.275 853.359,308.275 837.567,308.275 C844.462,305.184 863.846,301.965 863.846,283.542 C863.846,265.119 863.846,47.885 863.846,37.761 C863.846,14.879 846.991,9.77 829.711,9.77 C829.711,8.16 829.838,8.3 829.838,6.845 C829.838,6.933 829.838,7.360 829.838,6.845 C839.578,6.845 919.212,7.24 965.664,7.24 C978.41,7.24 987.962,3.775 993.693,0.662 C993.693,9.285 993.693,41.450 993.693,50.127 C991.681,50.127 990.124,19.211 965.868,19.211 C947.492,19.211 925.833,19.211 897.853,19.211 C897.853,59.398 897.853,99.596 897.853,139.783 C927.327,140.626 974.294,145.512 987.509,128.963 C988.540,129.478 989.571,129.993 990.601,130.508 C990.601,148.26 990.601,165.548 990.601,183.65 C988.564,183.65 991.494,183.65 989.55,183.65 C986.550,164.444 983.237,153.695 955.48,153.695 C937.377,153.695 912.980,152.149 897.853,152.149 C897.344,178.856 897.853,250.871 897.853,269.630 C897.853,296.668 967.918,292.82 982.872,288.179 C992.211,284.415 997.88,268.795 998.330,257.264 M1386.325,81.43 L1270.390,299.0 L1154.455,84.134 L1132.814,299.0 C1132.814,299.0 1159.266,304.596 1163.730,308.275 C1163.215,308.790 1162.700,309.305 1162.184,309.821 C1135.393,309.305 1108.594,308.790 1081.803,308.275 C1081.803,307.760 1081.803,307.244 1081.803,306.729 C1092.580,303.940 1100.468,302.221 1108.81,297.454 C1119.220,227.23 1140.543,0.662 1140.543,0.662 L1270.390,254.172 L1401.783,2.207 L1432.698,300.546 L1465.160,309.821 C1465.160,309.821 1391.247,309.995 1383.233,309.821 C1386.391,306.663 1409.710,300.84 1409.710,300.84 L1386.325,81.43 ZM737.91,2.207 C739.151,2.207 738.636,2.207 738.636,2.207 L737.91,50.127 C737.91,50.127 736.60,50.127 735.545,50.127 C734.689,10.325 708.283,20.211 670.621,19.211 C660.518,18.943 636.614,19.211 636.614,19.211 C636.614,19.211 636.614,100.112 636.614,139.783 C661.359,139.783 685.770,139.783 706.175,139.783 C715.507,139.783 723.361,137.370 730.907,130.508 C730.907,149.56 730.907,162.972 730.907,181.520 C728.768,181.520 729.480,181.520 727.816,181.520 C724.721,167.649 720.671,154.806 706.443,154.806 C687.484,154.806 656.284,153.695 635.68,153.695 C633.522,154.726 636.614,155.756 635.68,156.787 C634.266,190.808 635.68,275.59 635.68,285.88 C637.76,303.584 665.985,305.183 673.713,306.729 C673.198,307.759 672.682,308.790 672.167,309.821 C657.293,310.187 586.365,309.944 577.874,309.821 C577.874,309.660 577.874,309.464 577.874,308.275 C587.837,305.275 603.44,302.789 604.152,285.88 C604.152,270.502 604.152,247.353 604.152,221.710 C604.152,156.564 604.152,17.665 604.152,17.665 C604.152,17.665 602.928,5.357 576.328,5.299 C575.982,4.895 576.333,5.334 576.328,3.753 C616.684,4.709 734.185,7.53 737.91,2.207 ZM1741.858,281.996 C1777.774,332.724 1772.855,450.151 1749.587,507.682 C1684.135,669.514 1518.868,719.292 1341.497,770.468 C1314.689,778.202 1170.137,812.595 1143.635,802.929 C1194.118,795.467 1243.794,777.520 1288.940,764.284 C1507.443,700.223 1771.161,575.537 1741.858,281.996 ZM126.501,337.645 C129.593,360.829 132.685,384.21 135.776,407.206 C146.534,448.300 159.22,486.306 177.513,520.49 C266.486,682.415 494.175,769.511 713.904,802.929 C713.904,803.445 713.904,803.960 713.904,804.475 C663.20,804.911 599.866,792.617 556.233,782.834 C432.131,755.9 258.96,713.520 166.692,594.247 C118.283,531.78 88.227,432.350 126.501,337.645 ZM777.281,382.473 C908.524,389.29 1006.237,425.30 1061.708,507.682 C1073.558,525.340 1102.57,567.152 1092.624,597.338 C1092.108,596.308 1091.593,595.277 1091.78,594.247 C1038.639,537.560 1022.173,484.97 942.681,448.942 C929.309,443.28 888.479,422.280 871.575,433.484 C901.702,490.658 883.262,594.751 959.685,606.613 C959.170,607.644 958.654,608.674 958.139,609.705 C863.745,607.112 862.989,512.578 836.22,442.759 C824.101,411.897 801.387,401.92 777.281,382.473 ZM1936.628,435.30 C1944.301,446.722 1941.546,464.311 1944.357,481.404 C1957.708,562.583 1935.926,629.67 1908.803,680.811 C1830.643,829.925 1620.139,870.930 1392.508,870.944 C1328.406,870.948 1267.528,869.624 1211.650,860.124 C1190.526,857.548 1169.396,854.971 1148.272,852.395 C1250.689,853.317 1372.397,867.169 1465.160,844.666 C1514.885,832.603 1564.67,825.360 1610.465,810.658 C1776.291,758.115 1918.684,635.520 1936.628,435.30 ZM316.634,861.670 C193.785,837.81 115.841,798.938 55.395,713.273 C21.437,665.149 -22.756,570.97 13.658,490.679 C17.265,513.863 20.872,537.55 24.479,560.239 C34.240,598.533 52.597,634.374 72.399,663.808 C183.801,829.404 424.743,853.456 692.263,844.666 C691.747,845.696 691.232,846.727 690.717,847.757 C635.589,853.940 580.445,860.124 525.317,866.307 C462.931,870.678 361.140,872.42 316.634,861.670 ZM902.491,648.350 C905.113,655.625 884.40,678.282 877.758,688.540 C856.49,723.988 842.220,766.181 832.930,813.750 C798.116,992.10 1017.883,1142.226 1148.272,1164.645 C1148.272,1165.161 1148.272,1165.676 1148.272,1166.191 C1104.506,1165.20 1059.365,1144.516 1024.609,1130.638 C922.253,1089.768 738.700,1008.161 780.373,841.574 C802.396,753.536 855.959,709.264 902.491,648.350 ZM1072.528,679.266 C1072.13,695.753 1068.948,710.970 1070.982,728.731 C1074.297,750.784 1078.570,765.195 1089.532,784.380 C1057.502,764.554 1055.181,716.30 1072.528,679.266 ZM1938.174,833.845 C1944.177,865.635 1848.149,956.718 1823.785,974.513 C1645.147,1104.981 1390.986,1038.739 1219.379,951.326 C1189.330,936.19 1114.436,908.998 1097.261,884.856 C1328.66,977.183 1794.524,1088.467 1938.174,833.845 ZM104.860,869.398 C118.771,881.764 132.686,894.132 146.597,906.498 C183.110,934.21 229.199,957.113 277.989,971.421 C415.286,1011.685 631.539,955.60 727.816,906.498 C727.816,907.13 727.816,907.528 727.816,908.43 C726.785,908.559 725.755,909.74 724.724,909.589 C707.207,919.893 689.684,930.201 672.167,940.505 C529.14,1024.34 300.620,1057.393 160.509,945.142 C138.712,927.679 118.929,901.214 104.860,869.398 ZM766.461,1020.886 C767.491,1020.886 768.522,1020.886 769.552,1020.886 C747.24,1047.488 710.918,1066.210 681.442,1085.810 C545.969,1175.891 315.95,1274.778 206.883,1082.718 C219.763,1092.507 232.647,1102.299 245.528,1112.88 C273.462,1128.736 307.62,1139.309 342.913,1147.642 C476.802,1178.761 701.687,1077.236 766.461,1020.886 ZM1774.319,1073.443 C1823.155,1088.389 1796.292,1190.312 1797.506,1235.752 C1796.991,1235.752 1796.476,1235.752 1795.960,1235.752 C1722.901,1211.600 1747.554,1125.673 1774.319,1073.443 ZM1995.368,1078.81 C1996.914,1078.81 1998.460,1078.81 2000.5,1078.81 C1997.990,1149.901 1914.681,1244.425 1833.60,1232.660 C1835.166,1225.160 1838.508,1222.657 1843.880,1218.748 C1858.677,1187.420 1907.52,1131.382 1935.82,1112.88 C1955.175,1100.754 1975.275,1089.416 1995.368,1078.81 ZM1370.867,1091.993 C1475.272,1108.35 1597.235,1197.86 1621.286,1296.38 C1620.770,1296.38 1620.255,1296.38 1619.740,1296.38 C1577.12,1260.331 1545.145,1211.866 1500.714,1177.12 C1473.922,1157.949 1447.123,1138.880 1420.332,1119.817 C1403.845,1110.544 1387.354,1101.267 1370.867,1091.993 ZM1922.716,1296.38 C1922.240,1373.916 1805.465,1436.540 1724.854,1428.976 C1688.743,1482.244 1638.51,1546.799 1584.186,1582.10 C1585.515,1589.7 1584.7,1586.610 1588.824,1589.739 C1605.779,1595.994 1622.71,1577.46 1633.652,1571.190 C1661.67,1557.324 1745.500,1520.558 1783.594,1529.453 C1783.594,1529.968 1783.594,1530.484 1783.594,1530.999 C1770.559,1572.703 1712.448,1604.879 1664.568,1612.926 C1632.727,1618.277 1581.737,1614.865 1571.820,1595.922 C1517.668,1627.126 1452.905,1706.746 1390.962,1724.223 C1392.508,1722.163 1394.54,1720.101 1395.599,1718.40 C1426.316,1705.381 1527.42,1618.33 1547.87,1591.285 C1538.882,1586.147 1527.675,1587.399 1520.809,1577.373 C1495.800,1540.855 1536.337,1435.135 1562.545,1427.431 C1571.993,1454.468 1576.547,1502.71 1567.183,1534.91 C1561.961,1551.946 1552.217,1558.85 1551.725,1583.556 C1579.940,1574.31 1629.796,1505.951 1649.110,1481.533 C1731.414,1377.481 1811.682,1267.782 1845.426,1115.180 C1845.941,1115.180 1846.457,1115.180 1846.972,1115.180 C1849.225,1237.965 1784.463,1327.504 1740.312,1407.335 C1740.312,1407.851 1740.312,1408.366 1740.312,1408.881 C1742.373,1408.881 1744.434,1408.881 1746.495,1408.881 C1795.849,1377.77 1853.926,1303.813 1922.716,1296.38 ZM1296.669,1136.821 C1391.254,1153.240 1490.635,1233.880 1519.263,1319.225 C1490.169,1303.844 1459.442,1253.454 1431.153,1231.115 C1403.846,1210.506 1376.532,1189.891 1349.226,1169.283 C1331.708,1158.463 1314.186,1147.641 1296.669,1136.821 ZM942.681,1190.924 C943.712,1190.924 944.743,1190.924 945.773,1190.924 C944.227,1191.954 942.681,1192.985 941.136,1194.16 C941.651,1192.985 942.166,1191.954 942.681,1190.924 ZM938.44,1194.16 C939.74,1194.16 940.105,1194.16 941.136,1194.16 C915.890,1213.594 890.637,1233.178 865.392,1252.756 C798.186,1305.524 738.284,1373.512 696.900,1452.163 C674.232,1495.245 651.277,1561.166 672.167,1622.201 C679.727,1644.290 692.675,1662.212 703.83,1680.941 C637.789,1654.12 612.342,1549.101 645.889,1472.259 C686.134,1380.72 774.946,1306.602 853.25,1251.210 C881.362,1232.147 909.707,1213.78 938.44,1194.16 ZM1731.37,1240.389 C1736.189,1241.420 1741.343,1242.450 1746.495,1243.481 C1750.744,1249.649 1753.270,1251.728 1754.224,1262.30 C1753.709,1263.576 1753.193,1265.122 1752.678,1266.668 C1747.772,1273.422 1743.817,1276.712 1732.583,1277.488 C1726.631,1273.631 1723.558,1273.443 1720.216,1266.668 C1718.111,1262.725 1717.559,1259.420 1718.671,1255.847 C1720.947,1245.959 1724.632,1245.553 1731.37,1240.389 ZM996.784,1241.935 C999.569,1250.373 973.362,1272.712 967.414,1280.580 C938.47,1322.312 908.671,1364.57 879.304,1405.790 C835.107,1477.519 749.433,1629.744 797.377,1744.319 C810.784,1776.359 842.160,1790.208 857.663,1816.971 C755.984,1777.832 707.222,1687.78 758.732,1561.915 C799.21,1464.15 865.693,1391.194 927.223,1314.587 C950.408,1290.373 973.600,1266.150 996.784,1241.935 ZM1061.708,1265.122 C1041.614,1306.339 1021.515,1347.569 1001.422,1388.786 C942.12,1524.881 890.676,1771.512 1063.253,1826.246 C1063.253,1827.276 1063.253,1828.307 1063.253,1829.337 C1062.738,1829.337 1062.223,1829.337 1061.708,1829.337 C1003.260,1811.920 958.696,1795.398 927.223,1752.48 C896.236,1709.365 891.763,1628.313 908.674,1566.552 C941.244,1447.606 1002.851,1357.366 1061.708,1265.122 ZM1853.155,1265.122 C1862.652,1266.138 1865.676,1268.957 1871.704,1272.851 C1872.735,1277.488 1873.766,1282.126 1874.796,1286.763 C1869.25,1295.978 1867.563,1301.214 1853.155,1302.221 C1845.243,1298.718 1842.927,1295.604 1837.697,1289.855 C1838.212,1285.218 1838.727,1280.580 1839.243,1275.943 C1843.494,1270.337 1846.980,1268.945 1853.155,1265.122 ZM1681.572,1269.759 C1720.286,1289.224 1699.722,1391.202 1687.755,1424.339 C1609.724,1416.906 1658.471,1299.135 1681.572,1269.759 ZM1111.173,1336.229 C1108.597,1371.263 1106.20,1406.308 1103.444,1441.343 C1103.209,1539.809 1112.379,1624.552 1156.1,1682.487 C1174.430,1706.963 1206.122,1727.366 1239.474,1736.590 C1250.286,1739.580 1265.470,1737.114 1273.482,1742.773 C1237.728,1745.619 1199.644,1746.919 1171.459,1735.44 C1057.276,1686.934 1067.765,1460.209 1111.173,1336.229 ZM1621.286,1422.793 C1630.685,1423.562 1634.720,1425.497 1638.289,1432.68 C1641.315,1435.854 1641.544,1439.907 1641.381,1447.526 C1639.320,1450.617 1637.259,1453.709 1635.198,1456.801 C1629.484,1458.593 1624.517,1460.998 1618.194,1458.347 C1612.195,1455.699 1610.85,1453.460 1607.373,1447.526 C1607.373,1442.889 1607.373,1438.251 1607.373,1433.614 C1612.10,1430.7 1616.649,1426.400 1621.286,1422.793 ZM1723.308,1470.713 C1727.430,1471.743 1731.553,1472.774 1735.674,1473.804 C1738.250,1476.896 1740.827,1479.988 1743.403,1483.79 C1744.755,1507.665 1726.377,1511.959 1710.942,1501.629 C1709.101,1495.809 1706.524,1489.718 1709.396,1483.79 C1712.913,1475.602 1716.827,1474.967 1723.308,1470.713 ZM1465.160,1572.735 C1477.776,1572.421 1481.489,1574.559 1488.347,1578.919 C1497.279,1607.683 1465.517,1617.790 1454.340,1592.831 C1455.885,1587.679 1457.431,1582.525 1458.977,1577.373 C1461.38,1575.827 1463.99,1574.281 1465.160,1572.735 ZM1540.904,1646.934 C1545.541,1647.449 1550.179,1647.964 1554.816,1648.479 C1560.815,1651.127 1562.926,1653.366 1565.637,1659.300 C1568.170,1671.41 1561.889,1676.153 1554.816,1682.487 C1543.476,1682.890 1538.684,1681.757 1534.721,1674.758 C1531.154,1670.805 1530.533,1668.492 1530.84,1660.846 C1533.690,1656.209 1537.298,1651.570 1540.904,1646.934 ZM1386.325,1725.769 C1387.355,1725.769 1388.386,1725.769 1389.416,1725.769 C1388.386,1725.769 1387.355,1725.769 1386.325,1725.769 Z"/>
</svg>