<svg id="Layer_1" data-name="Layer 1" xmlns="http://www.w3.org/2000/svg" xmlns:xlink="http://www.w3.org/1999/xlink" viewBox="0 0 1000 1000"><defs><style>.cls-1{fill:#f3f4f5;}.cls-2{fill:#dad9d9;}.cls-3{fill:url(#radial-gradient);}.cls-4{font-size:100px;fill:#231f20;font-family:EBGaramond-Bold, EB Garamond;font-weight:700;}.cls-5,.cls-6{fill:#fff;}.cls-6{font-size:110px;font-family:SpaceandAstronomy, Space and Astronomy;letter-spacing:0.02em;}</style><radialGradient id="radial-gradient" cx="564.54" cy="394.45" fx="752.9817262667611" r="385.65" gradientUnits="userSpaceOnUse"><stop offset="0" stop-color="#0aa6c4"/><stop offset="0.16" stop-color="#0f8ead"/><stop offset="0.5" stop-color="#1a5173"/><stop offset="0.68" stop-color="#212f52"/><stop offset="0.76" stop-color="#18223c"/><stop offset="1"/></radialGradient></defs><path class="cls-1" d="M500,992.5A492.63,492.63,0,0,1,308.3,46.2,492.63,492.63,0,0,1,691.7,953.8,489.39,489.39,0,0,1,500,992.5Z"/><path class="cls-2" d="M500,15A485.13,485.13,0,0,1,688.78,946.89,485.13,485.13,0,0,1,311.22,53.11,481.88,481.88,0,0,1,500,15m0-15C223.86,0,0,223.86,0,500s223.86,500,500,500,500-223.86,500-500S776.14,0,500,0Z"/><circle class="cls-3" cx="500" cy="500" r="360.77"/><text class="cls-4" transform="translate(116.91 452.59) rotate(-78.95)">F</text><text class="cls-4" transform="matrix(0.34, -0.94, 0.94, 0.34, 128.22, 395.54)">E</text><text class="cls-4" transform="translate(147.6 338.09) rotate(-58.48)">M</text><text class="cls-4" transform="translate(199.78 258.66) rotate(-49.42)"> </text><text class="cls-4" transform="translate(217.48 237.04) rotate(-43.01)">F</text><text class="cls-4" transform="translate(253.65 201.94) rotate(-34.28)">A</text><text class="cls-4" transform="translate(315.04 159.14) rotate(-21.71)">M</text><text class="cls-4" transform="translate(404.07 126.6) rotate(-11.64)">I</text><text class="cls-4" transform="matrix(1, -0.07, 0.07, 1, 443.48, 118)">L</text><text class="cls-4" transform="translate(498.21 113.63) rotate(4.53)">Y</text><text class="cls-4" transform="translate(567.16 120.65) rotate(11.74)"> </text><text class="cls-4" transform="matrix(0.94, 0.33, -0.33, 0.94, 594.54, 125)">C</text><text class="cls-4" transform="translate(664.22 149.38) rotate(31.09)">H</text><text class="cls-4" transform="translate(734.94 192.72) rotate(42.94)">U</text><text class="cls-4" transform="translate(791.49 245.64) rotate(54.48)">R</text><text class="cls-4" transform="translate(835.53 307.76) rotate(65.41)">C</text><text class="cls-4" transform="translate(866.41 374.85) rotate(77.13)">H</text><text class="cls-4" transform="translate(712.39 900.63) rotate(-32.53)">A</text><text class="cls-4" transform="translate(657.86 924.3) rotate(-23.56)">S</text><text class="cls-4" transform="matrix(0.97, -0.25, 0.25, 0.97, 578.94, 946.51)">A</text><text class="cls-4" transform="translate(505.74 952.97) rotate(-4.63)">B</text><text class="cls-4" transform="translate(402.55 943.76) rotate(6.53)">M</text><text class="cls-4" transform="translate(317.95 915.5) rotate(18.85)">O</text><text class="cls-4" transform="matrix(0.86, 0.52, -0.52, 0.86, 227.21, 863.25)">M</text><path class="cls-5" d="M181.56,390c.66-3.41,1.21-6.84,2-10.21.51-2.13,1.4-4.17,2.12-6.25l.4.08c.75,4.7,1.66,9.39,2.2,14.11,1.61,14.25,7.48,26.83,14.92,38.8,12,19.25,28.9,32.75,49.27,42.21,15.59,7.24,32,11.72,48.91,14.74,24.14,4.33,48.54,5.64,73,5.77,10.51,0,21-.29,31.53-.45h1.62c.06.15.12.29.17.43A6.77,6.77,0,0,1,406,490c-6.87.81-13.74,1.57-20.61,2.33-10.17,1.13-20.32,2.5-30.52,3.31-9.49.75-19,1.2-28.54,1.23-10.29,0-20.58-.35-30.85-1-9-.55-17.69-2.94-26.38-5.19-13.59-3.51-26.81-8.09-38.71-15.68-25.42-16.19-41.25-39.14-47.67-68.57-.54-2.48-.75-5-1.12-7.56V390M753.72,712.82A118.46,118.46,0,0,0,729,720.35c-6.85,2.78-13.73,5.53-19.64,10.17a14.07,14.07,0,0,1-3.79,1.86,5.93,5.93,0,0,1-4.91-.18c-1.47-.77-1.48-2-.25-3,5.28-4.37,10.79-8.51,15.72-13.24,10.85-10.42,19.85-22.39,28.34-34.77a2.28,2.28,0,0,1,2.18-1.27c19.24.5,35.94-6.07,50.42-18.5a36.8,36.8,0,0,0,11.61-16.88,78.34,78.34,0,0,0,1.66-8c-.68,0-.89-.08-1.1-.07-.38,0-.75.09-1.13.16a50.15,50.15,0,0,0-16.79,6.53c-8,4.69-14.92,10.74-22,16.64-5.18,4.33-10.48,8.51-15.79,12.67a9.38,9.38,0,0,1-2.85,1l-.32-.55c1.44-2.54,2.87-5.08,4.33-7.61,6.85-11.88,13.88-23.65,19.42-36.23,6.23-14.17,10.35-28.87,11.07-44.4.12-2.4,0-4.81,0-7.22a2.37,2.37,0,0,0-.77,1.36c-5.59,24.76-15.55,47.72-28.77,69.31-14.68,24-32.25,45.86-50.06,67.52-3.47,4.23-7.65,7.89-11.65,11.65-1.37,1.29-3.2,2.11-5.06,3.31a22.07,22.07,0,0,1,2.35-10.35,43.31,43.31,0,0,0,2.87-7.26c2.16-8.66,1.68-17.39.14-26.09-.45-2.53-1.18-5-1.82-7.65a13.53,13.53,0,0,0-5.72,5.24,64.06,64.06,0,0,0-8.93,21.07c-1.35,5.47-2.17,11-1.31,16.66.72,4.78,2.72,8.48,7.95,9.52a19.41,19.41,0,0,1,2.88,1.11c-.48.61-.73,1-1,1.29-1,1.13-2,2.29-3.08,3.38a301,301,0,0,1-26.79,23.94c-5.78,4.63-11.53,9.3-18.18,12.69-.73.37-1.4.84-2.09,1.26l.72.94c2.51-1.09,5.09-2,7.52-3.29,8.54-4.39,15.84-10.53,23.17-16.63S682.35,744.1,689.83,738c1.66-1.35,3.58-2.4,5.41-3.61,2.23,3.13,5.42,4.28,8.74,5a57.78,57.78,0,0,0,36.68-4c7.33-3.27,14-7.49,19.2-13.78a23.21,23.21,0,0,0,4.78-8.87,29.21,29.21,0,0,0-10.92.11M814.6,355.53c-.06.3-.15.59-.19.89-.43,3.19-.76,6.38-1.28,9.55-5.19,31-19.72,56.91-43.3,77.68-19.56,17.21-42.27,28.65-67.25,35.54-11.26,3.11-22.85,5-34.17,7.88A203.79,203.79,0,0,1,613.7,493c-15.68-.34-31.35-.95-47-1.41-2.52-.08-5,0-7.57,0,6.14.82,12.29,1.62,18.44,2.33,8.17.94,16.32,2.21,24.51,2.62,12.39.62,24.82.82,37.23.84,25.58.05,51-1.64,76.19-6.63,16.28-3.22,32.1-7.89,47-15.35,19.91-10,35.74-24.06,45.29-44.59,6-13,9.91-26.42,10.6-40.78.49-10.2-1.59-20.17-2.18-30.27a21.18,21.18,0,0,0-1.12-4.25l-.46.08m.21,130.29c-.27.45-.51.91-.82,1.33-3,4.19-5.78,8.6-9.13,12.51C793.49,513,779,521.6,762.62,527.33c-18.39,6.45-37.45,8.76-56.81,9.09-22.24.38-44.25-2-66.1-5.94a520.44,520.44,0,0,1-97.88-27.91c-.38-.15-.79-.23-1.18-.35a18.7,18.7,0,0,0,4.42,4.12c4,2.42,8,4.84,12.22,6.87,8.37,4,17,7.65,25.29,11.75,22.46,11,45.71,19.76,70.17,25.09,23,5,46.17,6.91,69.58,3.41a123.2,123.2,0,0,0,44.51-15.19c18.1-10.58,32.14-25.51,44.32-42.31a34.5,34.5,0,0,0,3.35-6.51,16.73,16.73,0,0,0,.73-3.5l-.43-.13M559,475.66c5.31-.42,10.67-.62,15.92-1.45a429.82,429.82,0,0,0,55.32-12.59c18.3-5.45,36.56-11,54.1-18.62,15.76-6.86,30.61-15.21,43.3-27,12.91-12,22.62-26.11,27.69-43,4.56-15.22,5.21-30.86,3.07-46.59-.92-6.76-2.59-13.35-6.05-19.35-.34-.58-.73-1.13-1.29-2,0,.7,0,1,0,1.23a132.87,132.87,0,0,1,0,25.77,111.56,111.56,0,0,1-13.41,43.51c-9.46,17.14-22.7,30.9-38.26,42.55C681.48,431.5,661.78,441.55,641,449.5a645.65,645.65,0,0,1-84.83,25.9,15.41,15.41,0,0,0,2.77.26m-144.16-.39c-.33-.09-.67-.2-1-.26-6.69-1.2-13.41-2.27-20.08-3.61-24.43-4.89-48.29-11.71-71.23-21.55-20.78-8.92-40.21-20-57.16-35.2-23.42-21-36.35-47.35-40.62-78.24-.59-4.21-1.15-8.43-1.77-13.05-.31.6-.45.81-.54,1.05A76.06,76.06,0,0,0,217.56,345a86.49,86.49,0,0,0,7.08,42.38c7.49,17.54,19.75,31.13,35.06,42.16a174.37,174.37,0,0,0,45.12,22.89,468.93,468.93,0,0,0,95.44,22.46c4.79.61,9.65.65,14.47,1,0-.19,0-.39.07-.58M556.73,593.53c-3.14-.78-6.31-1.43-9.4-2.35-22.07-6.55-41.49-17.88-58.78-32.93-11.68-10.17-21.57-21.83-28.38-35.88-5.57-11.47-8.41-23.52-7.33-36.35a115.73,115.73,0,0,1,5-23.58c3.35-11.17,7.79-21.82,15.29-31a33.08,33.08,0,0,0,2.71-4.07,14.35,14.35,0,0,0,.89-2.26c-.41,0-.56,0-.65.15-6.1,7.39-12.23,14.75-18.28,22.19-8.43,10.38-15.41,21.6-19.47,34.46-2.83,9-4.38,18.08-3.28,27.51,1.32,11.3,6,21.16,13.1,29.93C456.4,549.6,466.76,557.3,478,564c12.46,7.44,25.72,13.19,39.17,18.57,9,3.62,18,7.55,27.51,9.64,4,.87,8,1.33,12,2,0-.22.08-.44.11-.65m-95,212.66c-1.13-1.44-2.15-3-3.41-4.29q-3.79-3.95-7.81-7.67A36.36,36.36,0,0,1,440,776.7c-3.44-12.49-3-25-.33-37.51,5.27-24.8,16.59-47,30.22-68.06,8-12.38,16.86-24.22,25.41-36.24,1.88-2.64,4.1-5.06,6.2-7.55,1.57-1.88,3.26-3.66,4.78-5.57a13.43,13.43,0,0,0,1.31-2.66c-.42-.07-.58,0-.69.1-7.53,7.87-15.31,15.52-22.51,23.68-6.95,7.87-13.37,16.21-19.94,24.42-10.93,13.66-21.15,27.81-29.11,43.47-6.28,12.34-11.41,25.06-12.39,39.08-.79,11.37,1.27,22.11,7.25,31.94,6.69,11,16.49,18.21,28,23.35,1.08.48,2.17.89,3.26,1.34l.24-.3m77.09-398.7c.12-.62.28-1.24.35-1.86a22.63,22.63,0,0,0-1.81-11.17,84.55,84.55,0,0,0-15.82-24.78c-10.63-11.8-24-19.23-39-24.11s-30.19-6.9-45.72-7.8a7.14,7.14,0,0,0-1,.1c2.82,2.06,5.35,3.93,7.9,5.77a30.94,30.94,0,0,1,12.17,16.7c1.9,6.47,3.85,12.92,5.8,19.37a80.45,80.45,0,0,0,6.84,17.07c5.48,9.56,13.76,14.54,24.72,15.13a11.5,11.5,0,0,0,2.22-.42,6,6,0,0,0-.72-.54,4.17,4.17,0,0,0-.63-.18c-7.65-1.48-12.79-6.12-15.69-13.13a83.41,83.41,0,0,1-3.94-12.58c-1.81-7.55-3.21-15.21-5-22.77a75.75,75.75,0,0,0-2.91-8.15,10.56,10.56,0,0,1,3-.69,30.15,30.15,0,0,1,7.07.87C494.12,359.75,509,369,520.06,384c5.91,8,12.18,15.84,18.29,23.75l.47-.24M527.34,809.12c-13.87-4.88-24-13.9-30.07-27.3-4.85-10.65-6.51-22-6.71-33.54a159.17,159.17,0,0,1,3.84-36.14,219.65,219.65,0,0,1,17.14-50.89q7.48-15.33,14.94-30.67c.22-.46.41-.93.62-1.4a1.82,1.82,0,0,0-.87.78c-6.31,10-12.74,20-18.88,30.17a273.74,273.74,0,0,0-26,55.1c-5.42,16.24-7.59,32.7-4.7,49.7,2.13,12.47,7.61,22.93,17.79,30.72s22.25,11.43,34.49,15.19c.22-1.61-1-1.48-1.64-1.72m-310.92-311c4.56,9.76,10.66,18.32,19.35,24.88,18,13.54,38.52,19.82,60.65,21.6a166.27,166.27,0,0,0,38.6-1.56A185.37,185.37,0,0,0,392.17,525c8.8-4.52,17.23-9.76,25.82-14.67.46-.26.91-.55,1.37-.83a2.24,2.24,0,0,0-1.32.24c-3.68,1.63-7.31,3.39-11,4.86a291.22,291.22,0,0,1-81.48,19.35c-12.57,1.12-25.17,1.41-37.65-.5-24.22-3.72-45.88-13.21-64.29-29.63l-7.46-6.63a8.33,8.33,0,0,0,.3,1m33.22,69.3c.73,1.2,1.44,2.41,2.2,3.6,9.42,14.7,22.15,25,39.28,29.36,13.36,3.4,26.77,2.7,40.14,0,16.48-3.38,31.92-9.63,46.83-17.29,15.52-8,30-17.68,44.45-27.36,3.36-2.25,6.23-5.25,9.31-7.92a8.37,8.37,0,0,0,1-1.15l-.26-.33a14.79,14.79,0,0,0-1.27.77c-3,2.13-5.8,4.44-8.87,6.39-21.16,13.41-44.05,22.91-68.09,29.7a183.78,183.78,0,0,1-34.62,6.31c-14.9,1.27-29.12-1.59-43.07-6.47-7.5-2.63-14.58-6-20.68-11.2-1.94-1.65-4-3.09-6.07-4.63a3.19,3.19,0,0,0-.26.26M488.42,603c-.54.32-1.09.62-1.61,1-7.86,5.28-15.74,10.53-23.56,15.87a299.94,299.94,0,0,0-38.5,30.76c-11.4,10.9-21.41,22.88-28.93,36.84a62.76,62.76,0,0,0-6.36,44.88c2,9.09,5.87,17.29,12.69,23.86a28.06,28.06,0,0,0,9.08,5.94c-.44-.83-.69-1.35-1-1.84-1.76-3-3.56-6-5.27-9a49.62,49.62,0,0,1-6.38-25.66c.22-12.33,3.68-23.83,9.1-34.76A192.7,192.7,0,0,1,455.28,630c10.14-8.74,20.93-16.71,31.44-25l2-1.58-.33-.39m56,47.66c-.23.65-.5,1.28-.71,1.94A189.9,189.9,0,0,0,535.8,692c-1.51,15.46-1.51,30.88,1.41,46.2,1.81,9.52,4.72,18.67,10.09,26.85,6.4,9.75,15.15,15.88,26.92,17.37,7.5,1,15,.61,22.5.09.16,0,.31-.17.85-.48-1.37-.31-2.35-.61-3.35-.74-2.37-.31-4.85-.21-7.12-.85-12.93-3.62-23.55-10.52-30.73-22.18-6.45-10.48-9.77-22-11.61-34a233.44,233.44,0,0,1-1.21-58.46c.5-5,.76-10,1.13-15.07l-.23,0m86-80.57c.45.28.89.56,1.34.82,5.09,2.94,10.32,5.64,15.23,8.85,6,3.89,11.55,8.36,17.48,12.31,9.41,6.27,17.43,14,25,22.31,6.56,7.13,13.42,14,20.16,20.92a18.15,18.15,0,0,0,1.76,1.4c-.17-.79-.22-1.1-.29-1.41a62.82,62.82,0,0,0-10.28-21.15c-14.59-19.87-34-33.08-57.16-41-4.28-1.46-8.74-2.37-13.12-3.53l-.16.46m139.62,31.6c.41-5.81.88-11.62,1-17.44A32.57,32.57,0,0,0,769,570.77a11.63,11.63,0,0,0-7.42-7.15,80.38,80.38,0,0,0-7.95,22.58c-1,5.68-1.24,11.37.64,16.94,2.39,7.14,7.58,11.28,14.64,13.59.44-5.23.91-10.15,1.25-15.08m-36.59,75.83c3.37-10.88,5.39-22,4.94-33.4a25.91,25.91,0,0,0-2.89-11.94,9.4,9.4,0,0,0-4.34-4.27c-.23.28-.43.47-.58.69-.44.62-.88,1.24-1.27,1.89a73.77,73.77,0,0,0-7.88,18,45.86,45.86,0,0,0-2.17,14.13c.25,9.45,4.89,14.73,13.84,15.67a7.17,7.17,0,0,0,.35-.79m-55.6-34c-3.25-11.63-14.94-27.26-28.55-38.17-12.92-10.37-35.65-21.22-43.17-20.54.58.38,1.07.71,1.56,1,5.26,3.29,10.69,6.33,15.73,9.92,7.93,5.66,15.68,11.57,23.32,17.6A97.1,97.1,0,0,1,657,622.71c4.75,5,9.13,10.38,13.85,15.43a76.63,76.63,0,0,0,6.75,5.78l.36-.45m109.71-5.1c2.73.12,6.59-2.92,6.67-5.26a6.65,6.65,0,0,0-6.37-6.75c-2.83-.14-5.47,3.24-5.59,7.13,0,1.57,3.45,4.81,5.29,4.88m-39.92-20.13c-1.89,0-4.54,3.59-4.56,6.12s3.06,6,5.38,5.9c3.26-.11,6.39-2.77,6.37-5.4,0-3.91-3.09-6.72-7.19-6.62m-2.47,75.36c-2.15-.13-5.25,3.22-5.36,5.78-.15,3.54,1.86,5.65,5.59,5.87,3.51.21,5.71-2.1,5.93-6.24.31-2.35-2.45-5.2-6.16-5.41m-51.77,63.34c.07-2.83-1.49-5.72-7.28-5.74-1.13,0-4.46,3.67-4.47,5,0,2.72,2.45,6.89,6.3,6.48,2.66.06,5.37-2.81,5.45-5.75m19-67.14a5.24,5.24,0,0,0,5.57-5.08c.07-4.05-2.51-7.18-6-6.7-1.66.23-3.23,1.82-4.61,3.05-.55.48-.49,1.65-.71,2.5.2,3.85,2.36,6.23,5.74,6.23m-51,37c-2.35-.1-4.54,3.17-4.45,6.46.05,2,3.58,4.76,6.14,4.75,3.1,0,5.41-2.62,5.4-6.11.3-3.91-2.79-4.91-7.09-5.1M531.87,435.77a32.65,32.65,0,0,0-2.32,6.6c-1.49,6.74-1.42,13.39,1.77,19.73a14.85,14.85,0,0,0,5.82,6.38c-5.68-10.28-6.68-21.27-5.27-32.71"/><text class="cls-6" transform="translate(372.87 285.36)">FEM</text></svg>