<svg xmlns="http://www.w3.org/2000/svg" viewBox="0 0 994.26 1000"><defs><style>.cls-1{fill:#fefdfd;}.cls-2{fill:#ad4525;}.cls-3{fill:#f7bc13;}</style></defs><g id="Layer_2" data-name="Layer 2"><g id="Layer_1-2" data-name="Layer 1"><g id="Logo"><path class="cls-1" d="M940.19,683.07l.1.09c3.23-7.8,1.43-10.73-7.47-12.11,0-2.66,2.19-2.66,4-3.35,15.59-5.92,27.38-15.68,32-32.43a12.94,12.94,0,0,0-2.29-12l-8.42,6.37c0-5.45-3.37-7.2-8.06-8,17.07-7.53,28.79-33.51,21.59-47.09a62.92,62.92,0,0,0-26,34.8c-.62-5.35-1-8.86-1.44-12.34s-.57-7-2.42-10.13c-1.61.12-3.13-.26-4.39,1.42v16.24c-5.45-14.77-7.79-17.47-15.43-18.1-4.25,12.8-4.5,25.11,5.05,36.54-6.71.48-8.79,4-8.05,10-4.89-2.54-7.1,0-8.44,4-3.47,10.25-2.9,20.15,3.12,29.61-4.86.06-8.55,1.72-8.31,6.87.31,7,5.43,7,11.14,6-2.87,5.65-5,11-9,16.2a42.27,42.27,0,0,0-4.68-20c-1.09-2-1.81-5.07-4.78-4.81s-4,3.12-4.79,5.56c-3,9.42-3.84,19-.74,28.55l-1,.75c-3.54-.8-6.87-.72-8.93,2.85a6.06,6.06,0,0,0,.46,7.24c3.58,4.41,7.6,2.74,12.83-.74-8.23,12.61-16.61,22.79-25,33.25l3.53,3.23c9.84-8.47,17.78-18.36,26.38-28.19,1.37,4.36,3.49,6.9,7.83,6.42a5.85,5.85,0,0,0,5.58-5.14c1-5.75-3.25-7.35-7.36-8.84.9-2.46,2.11-3.48,4.77-3.46A67.86,67.86,0,0,0,923,711.11c13.94-2.27,22.24-11.47,28.18-23.39,1.07-2.14,1.8-4.79-.26-6.76-1.86-1.78-3.94-.23-5.86.45C943.46,682,942.18,683.56,940.19,683.07ZM102.47,716.55c3.14,2.45,6.42,2.94,9.53.17a6.13,6.13,0,0,0,1.31-7.88c-2-3.77-5.38-4-9.09-3l-1.06-.89c3.35-10.27,2.45-20.35-1.39-30.28-.7-1.82-1.8-3.63-4-3.87-2.42-.27-3.18,1.84-4.13,3.49-3.67,6.37-5.22,13.33-5.55,20.94-3.75-4.88-7.19-11.62-8.21-16.14,4.84,1.8,9.11,1.3,10.33-4.24,1.31-5.89-2.65-8-7.79-8.5,5.45-10.77,6.31-21,2.63-30-1.64-4-4-6.19-8.65-2.85,1.46-6.63-1.12-10.08-7.62-10.78C78.4,611.25,78,599,73.6,586c-10.42,1.84-12.14,10.38-15.49,19.79V587.38l-4.4-.9c-2.23,7.1-2.52,14.11-3.53,21.41-11.36-20.95-18.09-29.31-26.52-33.07-6,14.94,4.19,37.2,21.92,47.11-4.89.21-7.69,2.56-8.18,7.58l-8.13-6.21c-2.73,3.56-3.47,7.07-2.56,10.85,4.18,17.36,16.16,27.33,32,33.56,1.79.7,4.28.42,4,3.47-7.95.84-9.8,3.32-8.1,10.67l-.84.95c-3.1-.66-6.42-4.79-9.19-1.43s.12,7.23,2,10.59c6.81,12,17.18,18.49,30.72,20.09,3.17.38,6.38.4,9.66.59.77,1,2.06,1.84,1.79,3.73-4,.55-7.2,2.12-7.38,6.77-.12,3.12,1.36,5.44,4.25,6.34,5,1.56,7.82-1.28,9.64-5.84,8.52,10,16.55,19.78,26.28,27.93,1.47-1.27,2.88-1.93,2.86-3.82-7.77-9.93-16.23-19.49-22.81-30.44Zm442.75,162a302.55,302.55,0,0,0,50.23-9.4q-5.55-301.65-11.07-602.45c-4.33.68-7.44-.5-10.55-2-37.59-17.87-75.06-36-112.86-53.39-19.14-8.82-37.2-20.36-58.25-25.14v-8.32a20.12,20.12,0,0,1,12.46,1.83c44.6,21.11,89.13,42.34,134,63,12.92,5.94,24.7,15.83,40.13,13.75l30.45,80a20.68,20.68,0,0,1,1.65,7.49c.07,26.18.26,52.37.38,78.56q.15,30.56.23,61.11c0,6.74,0,13.47,0,20.67L772.19,501c15,64.53,26.29,129.12,19.27,195.45l34.69,3.48C918.21,556,907.62,348.47,763.77,211.34c-138.08-131.62-356.43-141.83-506-22.92-157,124.8-172.48,316.41-124.12,438.26,0-4.56-.17-9.22,0-13.85.18-3.82-1.58-8,.46-11.4,12-19.88,24.21-39.6,36.47-59.54l12.74,3.54,29.57-43.53,74.6,14.18V499.66c19.57,4.27,38.28,10.3,57.37,12s38.5-.94,58.19-1.7V373.29c7.45,6.73,12.35,12.76,12.32,23.57q-.69,234.81-.32,469.63v6.4c17.1,3.37,33.7,6.53,50.68,7.19A365.36,365.36,0,0,0,545.22,878.54ZM708.57,777.25H757.8c6.9,0,11.35-4.41,11.35-11.26V511l-146,10v340a387.23,387.23,0,0,0,83.64-40.31c2.12-1.35,1.74-3.25,1.75-5.12C708.58,802.94,708.57,790.37,708.57,777.25ZM349.41,527.57v324.7c17.54,7.11,34.92,13.22,53.28,17.5v-91.3l-6.59-.53V735.61l6.43-.46V711.46l-6.44-.45V668.66l6.45-.46V644.5l-6.43-.43v-42.3l6.52-.36V519.89ZM287,543.82V810.23c0,9.61,4,14.43,13.86,16.79V536.68L214.76,511c0,22.2.09,43.52,0,64.84-.27,57.7-.34,115.41-1.23,173.1-.15,9.75,5,14.36,11.58,20.4V533.4ZM20.43,365.8c1.86-9,7-8.08,13.17-5.49,14.43,6,29,11.73,43.52,17.47,6.1,2.4,12.15,4.64,6.8,13.12l4.66,1.84,9.74-24.55c-1.36-.79-2.58-1.91-4.87-1.25-1.57,8.08-6.63,6.86-12.57,4.38-9.23-3.85-18.63-7.25-27.94-10.88-4.62-1.81-9.2-3.7-13.8-5.55l.27-1.15,67.53-4.7c2.56-2.78.51-4.57-1.28-6.48q-18.52-19.83-37-39.69c-1.89-2-3.66-4.2-5.63-6.47,2.45-1.1,3.85.11,5.26.66,12,4.71,23.91,9.69,36,14.25,6.3,2.37,11.33,4.87,6.09,12.85l4.78,1.86,13.14-33.2L124,291.25c-5,8-5.06,8.2-14,4.75-14.59-5.62-29-11.79-43.59-17.33-6.37-2.4-11.5-4.72-6.71-12.51-1.77-1.26-3-2.24-4.73-1.71L45.71,288.2,88.24,334l-62.34,4.3c-3.37,8.38-6.77,16.84-10.27,25.53ZM346.29,106.25l32.64-14.31-2.24-4.5c-7.47,5-10.39.34-12.93-5.65-6.19-14.53-12.55-29-18.83-43.5-3.93-9.08-3.93-9.08,4.31-14.23-1-1.15-.6-3.08-2.55-3.8l-24.76,11v62L274.22,52.15l-25.33,11c.84,1.71.87,3.25,2.81,4.17,7.05-4.45,9.92,0,12.49,6.15,6,14.28,12.23,28.43,18.43,42.61,2.64,6,5.8,12.13-4.43,14.34l2.26,4.53L304.8,124.3c-.78-1.4-.63-3.15-2.87-4.21-6.91,4.94-9.41.12-11.94-5.74-5.83-13.5-12-26.85-18-40.3,2.34-.8,3.27.87,4.41,1.85q22.39,19.29,44.73,38.66c1.38,1.19,2.42,3,4.91,1.9s1.75-3.19,1.79-5c.27-11.14.37-22.29.74-33.42.34-10.3,1-20.59,1.54-32.81,6.67,15.35,12.49,28.82,18.39,42.24,2.64,6,6.33,12.15-4.48,14.07C345,103.57,345.58,104.8,346.29,106.25ZM989.62,463.69c1.53,8.1-2.61,9.33-8.88,9.11-15.81-.57-31.64-.74-47.46-1.05-6.52-.13-14.18,1.26-11.49-9.62-2.31-.12-3.88-.85-5.64.46V497.8l4.38-.23c.74-2.87-.14-5.81,1.93-8.36,10.38-1.78,20.91-.69,31.24-.36v36.71c-11.26-.6-22,.29-32.57-1.75-.41-3.23-.74-5.76-1.09-8.47h-4.95v35.43h4.71c-1.73-9.46,4.09-9.46,10.76-9.23,15.65.54,31.31.72,47,1,6.33.11,12.89-.16,10.24,9.31,2.23,1,3.87,1.17,5.72-.11V517.15a5.19,5.19,0,0,0-4.22-.11c-1.67,2.82,1.26,8.24-4.14,8.57-8,.48-16,.12-24.43.12-.1-12.49-.32-24.5,1-36.75,9.16.14,18-.26,26.77,1.73.41,3,.77,5.62,1.13,8.18,1.72.44,3.13.72,4.65-.35V463.29ZM838.79,140.17c1.5-1.81,3-2.64,3-4.37l-27.36-21.69a6.66,6.66,0,0,0-3.26,4.16l6.26,5.07c-4.76,8.4-10.58,15.07-16.45,22.35l-28.78-22.85c4-4.92,7.78-9.34,11.31-14,3.93-5.13,7.91-8.91,13.7-1.86l3.17-4.07-28-22.34-3.27,4.15c9,4.22,5.17,9,1.08,14.06-9.63,12-19.11,24-28.61,36.06-4.1,5.21-7.83,11.53-14.87,3.14l-3.12,4.05,27.82,22a5.92,5.92,0,0,0,2.71-3c-.53-3.88-7.25-4.13-4.18-9,5.22-8.35,11.61-15.83,18.14-23.85l28.71,22.9c-7.15,8.81-13.25,17.49-21.15,24.92l-7.42-4.53-2.88,3.69,28.13,22.36,2.71-3.8c-6.54-6.67-6.61-6.74-.83-14.1,9.87-12.58,20-25,29.74-37.64C829.12,136.78,832.91,132.92,838.79,140.17ZM929.16,258c5.31,7.37.28,10-5.77,12.85-15.16,7.18-30.32,14.34-45.87,20.63-2.19.89-4.34,2.26-7.23,1.35-1.19-2-2.48-4.19-3.78-6.37a6.36,6.36,0,0,0-4.29,2.2l14.72,32.14,4.71-2.14c-5.78-7.69-.63-10.36,5.43-13.05,15.76-7,31.41-14.27,47.11-21.39,1.42-.64,2.79-1.65,4.47-1.18,6.52,9.63,6.74,17.49.57,22.64A18.7,18.7,0,0,1,927.14,310c-8,.1-11.7-5.48-14.91-12.94-8.22,15.67-18,28.43-27,42.05l8.7,19c1.84-.36,3.33-.77,3.55-2.55,4.1-15.12,14.31-27,21.8-40.78,3.31,3.09,6.15,5.5,9.65,6.86,7.83,3.05,15.4,2.6,21.75-3.14,6.16-5.57,5.69-12.61,2.74-19.65-6.11-14.54-14.12-28.18-19.53-42.78C931.69,255.86,930.56,256.71,929.16,258Zm-67.57-95c4.69,8,4.76,8.06-2.18,13.54-9.5,7.52-19.1,14.91-28.7,22.3-15.07,11.58-17.17,22-7.38,38.3a62.87,62.87,0,0,0,7.58,10c11.17,12.22,24,13.92,37.53,4.57,11.29-7.8,22.24-16.09,33.18-24.38,4.12-3.12,7.42-3.48,10.46,1.14.13.2.54.23,1,.43l3.15-2.74-15.86-20.45c-1.56.76-3,1.4-3.66,3.3,5.82,5.35,3.62,9.47-1.91,13.51-10.68,7.82-20.9,16.31-31.78,23.82-9.44,6.51-18.23,3.83-26-6.79-7.55-10.32-7.14-18.54,1.94-25.89,10.3-8.33,21-16.11,31.39-24.36,4.77-3.81,8.74-4.37,12.42,1.15.15.22.52.3,1,.55l3.23-2.72L865.27,160ZM79.09,468.08c2.6-19.07,5.14-37.72,7.7-56.44l-18.67-3.83a5.4,5.4,0,0,0-.76,4.52l5.38,1.91c2.56.91,5.46,1.39,5.34,5.16a122.13,122.13,0,0,1-3.15,25.33l-29.11-3.94c-1.19-15.63,1.8-20.88,12-21.16l.43-4.21-24-3.19c-.86,1.6-1.33,2.77-.77,4.12,2.28,2.07,7.76-.1,7.52,5-.27,6.07-.74,12.19-2.65,18.43-9-1.42-18-2-26.91-4.63.49-8.59,1.61-16.8,4.27-24.44,3.29-1.54,6.22,0,9.11-.51a5.06,5.06,0,0,0,.59-4.33L8.61,402c-2.53,20-5,39.32-7.41,58.57,1.5.86,2.79,1.44,4.58.56.2-6,2.69-9.07,9.63-8,17.06,2.63,34.28,4.23,51.27,7.46,4,.76,8.08.94,9.06,6.14C76.05,468.42,77.66,468.16,79.09,468.08ZM182.6,111.44c6.94,23.45,13.68,46.5,20.63,69.49,1.4,4.62,1.38,8.47-2.74,11.59-.19.14-.15.59-.33,1.36l2.39,3,20.7-16.7-3.2-3.36c-8,5.33-8.3,5.26-11.39-3.32-1.08-3-2-6.07-3.17-9.44l22.49-18c5.19,3.7,11.37,5.46,15.79,10.52l-5.75,6,2.92,3.51,27.67-22.3-3.38-3.78c-3.93,4.82-7.85,3.06-12.11.65-7.3-4.12-14.84-7.83-22.25-11.77q-21.09-11.22-42.09-22.47Zm531.87,11.81c-3.43,0-6.16.16-8.87,0-16.13-1.11-29.44-11.48-32.64-25.74-2.44-10.88.63-20.83,6.37-30,13-20.82,34.2-16,46.36-4.59,4.75,4.46,6.88,9.72,2.89,15.94a12,12,0,0,0-.85,2.12c1.24,1.11,2.35,2,4,1.73L741.68,67c-7.81-9.52-22.12-18.16-35.26-21.38-29.7-7.27-54.49,15.37-50.74,45.83,3.15,25.53,35,40.1,53,38.06C711.41,129.15,713.5,127.27,714.47,123.25Zm273,307.24A69.59,69.59,0,0,0,981.6,387c-15.26-31.56-50.88-25.71-66.67-9.31-17.13,17.77-10.13,50.73,2.21,64.27a7.33,7.33,0,0,0,7.73,1.86c0-.65.19-1,.06-1.24-.85-1.36-1.75-2.69-2.65-4-6.3-9.3-10-19.54-7.52-30.65,3.44-15.67,14.94-23,29.83-25.95,21.57-4.31,37.57,9.49,36.43,31.42-.43,8.43-3,11.65-11.07,13.86a23.33,23.33,0,0,0-2.76,1.16l1.26,3.8Zm-814.4-240L154,174.38c-.85,2-2.78,2.58-2.51,4.88,5.55,3.09,4.28,6.8.57,10.75-2.73,2.91-5.3,6-8.22,9.27L123,181c5.31-6.83,9.76-13.76,17.32-18l7.83,5.42,2.65-3.54-13.34-12.18-36.88,43.71c1.14,1.23,2,2.52,3.75,2.74,2.45-1.33,3.59-4.3,7.17-5.08,17.2,13.4,34.52,27.22,50.4,43.13l-4.83,6.88a5.38,5.38,0,0,0,3.49,2.94l23.91-28c-1.14-1.28-1.94-2.53-3.1-2.62-4.08,1.34-5.31,8.78-11,4.49-7.31-5.53-14.33-11.46-21.43-17.17,9.11-13.7,11.6-14.83,21-9.71ZM168.6,563.11c-10,14.22-19.45,27.66-28.95,41.06a5.79,5.79,0,0,0-.89,3.65c0,10.17-.12,20.35-.15,30.52,0,5.17,3,9.15,5.09,13.55,0-5.86-1.19-11.85,6.27-15.43v23.47c2.73-1.55,2.58-3.55,2.59-5.46,0-5.65.37-11.34-.1-17s2.65-8.28,6.85-11.73v27l4.93-5.57c0,14.39.11,27.41-.07,40.43a13.73,13.73,0,0,0,4.43,10.64ZM431.24,78c-8.76,3.39-10.49-1.6-11.65-8.18-1.74-9.84-4.29-19.53-6-29.37C412,31.65,409.23,23,409.38,13.61l7.77-2.77c.13-1.82.22-3.41-1.2-4.52l-34.43,7.1c.16,1.93.22,3.52,1.52,4.68,2.61-.24,5.11-1.24,8.16-.18a48.43,48.43,0,0,1,1.83,5.6q5.07,24.15,10,48.33c1.3,6.32,3.91,13.31-6.91,13.47.56,2,.19,3.74,1.43,4.79L432.17,83C431.86,81.31,431.63,80.08,431.24,78ZM773.39,765.89c8.74-6.79,14.42-13.88,12.82-25.53-1.23-9-.24-18.19-.24-27.5,4.16.23,7.54.38,10.91.59s6.75.54,10.13.74c10.89.62,11.67.1,16.62-11l-50.24-5ZM205.33,747.54v-201c-2.47,3.79-5.74,6-5.73,10.49q.14,90.89,0,181.77C199.61,742.88,201.8,745.08,205.33,747.54ZM189.53,729V568.11c-4.31,4.11-6.2,8.2-6.17,13.94q.33,66.63-.12,133.25C183.2,721.15,185.82,724.78,189.53,729Zm44.82,36.91c-1.41,14.18.48,16.44,11.85,14.76V767.78Zm31.09-141.1,12.1,2V614.28l-12.1-1.87Zm12.14-61.43V550.91l-12.09-1.84v12.46ZM265.44,754.85v12.49l12.16,1.94V756.85Zm12-17.21V725.1l-12-1.85V735.7Zm-12-17.76,12.15,1.85V709.31l-12.15-1.94Zm12.1-74-12-1.77v12.47l12,1.76Zm0-63.37-12.08-1.76v12.5L277.6,595Zm0,170.85V740.88l-12-1.7c-.38,4.47-.65,8.4.14,12.47Zm-12.06-61.73v12.43l11.94,1.73V693.33Zm0-95.09v12.52l12,1.78V598.38Zm-31.3,70.94,12.08,2V656.92l-12.08-1.85Zm27.54,83.56V738.48l-11.92-1.86v12.45ZM246.19,558.56V546.05l-11.95-1.79v12.45Zm3.69-11.93v12.56l11.86,1.74V548.48Zm-15.66,25.86,12,1.94V561.94l-12-1.93Zm0,79.27,12.09,1.76V641.08l-12.09-1.8ZM261.82,691l-12.06-1.83v12.46l12.06,1.85Zm-15.55-81.56-12.07-1.85V620l12.07,1.9Zm0,95-12.07-1.86V715l12.07,1.87Zm-.12,60V751.86l-11.87-1.71v12.38Zm.11-139.22-12.05-1.79v12.47l12.05,1.79Zm-12.11,58.1,12,1.93V672.74l-12-1.78ZM261.8,596l-12-1.82v12.5l12,1.76Zm-15.49-2.3c-4.07-.62-8-2-12.08-1.45v12l12.08,1.81Zm15.49,49.85-12.06-1.9v12.49L261.8,656Zm-27.46,43.24v12.54L246.18,701V688.54Zm-.13,60,12,1.66V736l-12-1.61Zm15.58-89.2V670l11.85,1.66V659.21ZM234.29,576v12.47l11.83,1.6V577.65Zm15.48,192.34V781h11.91V770.11Z"/><path class="cls-2" d="M0,490l17.65,1.31.53,4.17a10.17,10.17,0,0,1-2.08.32c-6.77-.53-9.18,3-8.79,9.26.33,5.44.51,10.88.75,16.18H35.9c0-4.12.07-7.62,0-11.12-.22-8.32-.45-8.54-8.63-9.7v-4.54l24-1.28.38,4.88c-16.77.94-7.3,12.9-9.68,20.83,10.43,0,19.92-.11,29.22-1.89,6-1.15,2.17-6.89,4.25-10.57.82-.74,2.19-.48,3.84,0q.83,18,1.64,36.18c-1,1.39-2.53.76-4.23,1.22-.51-2.92-1-5.53-1.57-9-22.31-.64-44.39.89-66,3-2.25,3-.8,6-2.35,8.86l-4.14.2C2,538.26,1.62,528.46,1,518.66"/><path class="cls-2" d="M545.32,0c9.58,8.48,11.88,20.73,16.41,31.81,1.19,2.92,2.14,5.95,3.55,9.92l26.19-34L600,8.94c.46,2.53-1.15,3.72-2.42,5.18-8.46,9.77-17.19,19.31-25.18,29.46C564.94,53.1,566.16,65,566,76.11c-.07,3.94,5.3,2.39,8.2,4v4.61l-36.51-4.87c.35-1.63.66-3.13,1.08-5.11,8.84,3.32,9.27-2.26,10.84-8.53,5.73-22.74-7.07-39.58-17.19-57.37-1.29-2.28-3.83-2.11-6-3-1.15-3.13.11-4.19,3.25-4.58,3.93-.48,8,.54,11.79-1.34Z"/><path class="cls-2" d="M482.25,0l-.34,4.91c-9.85-.84-8.85,5.91-8.57,12.35.78,17.88,1.46,35.76,2.19,54.09a89.06,89.06,0,0,0,26.58-1.85c3.28-.7,2.34-4.24,3.11-6.54a30.35,30.35,0,0,0,.87-5.17c1.61-1,3.13-.88,5-.47-.45,6.41-.89,12.77-1.38,19.69-18.81,2.66-37.7.61-56.19,3-.59-1.79-.8-3.1.49-3.61,5.26-2.07,5-6.44,4.82-10.89-.68-16.12-1.2-32.25-2-48.37-.48-9.76-.66-9.75-10.11-10.9-.84-1.3-.58-2.69-.21-4.34,8.58-1.7,17.48.32,26-1.89Z"/><path class="cls-2" d="M465.75,880.08c-17-.66-33.58-3.82-50.68-7.19v-6.4q0-234.81.32-469.63c0-10.81-4.87-16.84-12.32-23.57V510c-19.69.76-39.13,3.4-58.19,1.7s-37.8-7.72-57.37-12v16.42l-74.6-14.18-29.57,43.53-12.74-3.54c-12.26,19.94-24.51,39.66-36.47,59.54-2,3.38-.28,7.58-.46,11.4-.22,4.63,0,9.29,0,13.85-48.36-121.85-32.9-313.46,124.12-438.26,149.6-118.91,368-108.7,506,22.92C907.62,348.47,918.21,556,826.15,699.91l-34.69-3.48c7-66.33-4.29-130.92-19.27-195.45L622,504.23c0-7.2,0-13.93,0-20.67q-.11-30.56-.23-61.11c-.12-26.19-.31-52.38-.38-78.56a20.68,20.68,0,0,0-1.65-7.49l-30.45-80c-15.43,2.08-27.21-7.81-40.13-13.75-44.83-20.62-89.36-41.85-134-63a20.12,20.12,0,0,0-12.46-1.83v8.32c21,4.78,39.11,16.32,58.25,25.14,37.8,17.41,75.27,35.52,112.86,53.39,3.11,1.48,6.22,2.66,10.55,2q5.54,301.2,11.07,602.45a302.55,302.55,0,0,1-50.23,9.4c-1.19-28.38-2.72-56.75-3.5-85.14-1-36.5-1.37-73-2-109.52q-1-54-1.93-108.07c-.65-36.5-1.37-73-1.93-109.51-.51-33.62-.86-67.23-1.28-100.85-.06-4.26-1.78-8.57.28-13.15,12.21-.67,24.44-1.43,36.68-2,7.84-.34,11.93-4.4,11.71-12.31-.33-11.78-.74-23.56-1.16-35.33a19.23,19.23,0,0,0-.72-3.17l-48.86,3.28c-1.67-2.26-1.53-4.22-1.55-6.15-.06-7.93-.39-15.86-.1-23.77.15-4.14-1.2-6.26-5-8.12-37.37-18.49-74.63-37.2-111.93-55.83-1.27-.63-2.6-1.13-4.72-2.05v90.45c17.41,4.53,35.35-1.93,53.19-.12a16.39,16.39,0,0,1-.25,8.77c-17.66,1.5-35.54,1.29-53.66,3.75v36.83c0,6.72,2.76,9.57,9.48,9.55,3.06,0,6.12-.42,9.18-.51,11.7-.31,23.36-2,35.77-1.31C462.55,529.87,466.23,705,465.75,880.08Z"/><path class="cls-3" d="M465.75,880.08c.48-175.12-3.2-350.21-2.82-525.79-12.41-.64-24.07,1-35.77,1.31-3.06.09-6.12.5-9.18.51-6.72,0-9.48-2.83-9.48-9.55V309.73c18.12-2.46,36-2.25,53.66-3.75a16.39,16.39,0,0,0,.25-8.77c-17.84-1.81-35.78,4.65-53.19.12V206.88c2.12.92,3.45,1.42,4.72,2.05,37.3,18.63,74.56,37.34,111.93,55.83,3.76,1.86,5.11,4,5,8.12-.29,7.91,0,15.84.1,23.77,0,1.93-.12,3.89,1.55,6.15l48.86-3.28a19.23,19.23,0,0,1,.72,3.17c.42,11.77.83,23.55,1.16,35.33.22,7.91-3.87,12-11.71,12.31-12.24.54-24.47,1.3-36.68,2-2.06,4.58-.34,8.89-.28,13.15.42,33.62.77,67.23,1.28,100.85.56,36.5,1.28,73,1.93,109.51q1,54,1.93,108.07c.66,36.51,1,73,2,109.52.78,28.39,2.31,56.76,3.5,85.14A365.36,365.36,0,0,1,465.75,880.08Zm64.53-60.45V803.55c-4.59.07-8.72-.63-12.74.41v15.67Zm-49.32.24V803.64c-4.21-.1-8-.67-12,.41.31,5.4.61,10.58.92,15.82Zm32-.18V803.5c-3.91.23-7.51-.71-11,.54v15.65Zm4.5-33.47v13.14h12.74V786.22Zm-21-121.5c-4.45.12-8.27-.4-11.85.7v13.34h11.85Zm32.76,66.57v-14c-4.2-.11-8-.66-11.76.35v13.66Zm-28.32-13.74c-.29,4.92-.47,9.34.43,13.82H513V717.55Zm-4.34-35.21c-4.24.4-8.16-1-11.92.95v13.1h11.92Zm19-70.46v13.68c4.11.28,7.87.5,11.85-.48a51.83,51.83,0,0,0-.09-13.46A39.54,39.54,0,0,0,515.59,611.88Zm11.81,31V628.84c-4.08.41-7.78-.57-11.63.92-.44,4.45-.84,8.81.3,13.16ZM482.46,544.1c.44,4-.67,8.11.77,12.34,3.91.47,7.66.81,11.29-.16V542.59C490.3,542.68,486.44,542,482.46,544.1Zm28.52,64V593.87l-11.76,1.21v13Zm18.4,140.74V735.41c-4.25-1.55-7.91.25-11.87.31a47.69,47.69,0,0,0,.09,13.13Zm-1.67-141.58c-.17-4.62.64-8.87-.45-13.06h-11.7v14.11Zm0,39.35c-3.87-.08-7.58-.77-11.46.47-.07,4.65-.63,9.08.39,13.27h11.91C528.28,655.81,528,651.72,527.72,646.62Zm-1-74.56c.34-4.32.68-8.55-.21-12.81H514.61c-.54,4.79.14,9.15.94,13.57C519.43,573.9,523,573.1,526.71,572.06Zm-.18-35a49.66,49.66,0,0,0-.23-13.14l-11.65,1.22v13.1C518.87,538.57,522.66,538.49,526.53,537.06Zm-15.36,40.47H499.26v13.23c4.3.1,8.11.69,11.91-.64ZM480.84,713.94V700.83H468.9a44.92,44.92,0,0,0,.15,13.11ZM482.66,522c4.48-.11,8.27.6,12-.59.16-4.35.47-8.47-.53-12.68-4-.36-7.71-.66-11.52.36Zm15.52-30.8c-.24,4.73-.63,8.85.22,12.9H510v-12.9ZM481,718.3c-4.31-.23-8.22-.76-12,.26v12.9h12Zm14.36-123.18H483.49a48,48,0,0,0,.19,13.12,38.32,38.32,0,0,0,11.68-.29Zm33.19,100.42a47,47,0,0,0-.3-13.22,39,39,0,0,0-11.55.28v12.94ZM469,748.84h12.08a43.89,43.89,0,0,0-.24-13.11c-4.09-.15-7.89-.63-11.84.33Zm10.19-205.11H466.85c.24,4.59-.65,8.84.47,12.89h11.84Zm1,122c-4.41,0-8.23-.74-11.94.43v12.78h11.94ZM469.05,799.65c4.37-.23,8.17.6,12-.56V786.25c-4.23-.24-8.15-.77-12,.3Zm30.84-156.57c4.37.27,8.29.75,12-.23V630c-4.25-.2-8-.68-12,.31Zm-14.51,143.1c-.16,4.78-.64,9,.25,13.11h12.16c-.29-4.61.64-8.87-.56-13.11Zm10.19-195.43c-.22-4.84,1.15-9.17-1.24-13.22-3.73-.19-7.22-.42-10.73.51v13.32ZM500,660.52h12v-13H500Zm14.76-118.65v12.91h11.94c.2-4.64.64-8.88-.22-12.91Zm-32-15.81V539.2c4.19.24,8.08.81,11.79-.78V526.06Zm30.79-73c4.22-.07,8,.49,11.88-.84a39.39,39.39,0,0,0-.23-12.67c-4,.31-7.88-.62-11.65,1.16Zm1,33.93c4.08-.14,7.84.73,11-.78V473.87H513.71C513.52,478.41,512.85,482.53,514.5,487ZM481.18,696.43c-.36-4.63-.67-8.72-1-13a33.21,33.21,0,0,0-12.25.23c.32,4.33.63,8.4.95,12.76Zm1.47-204.26V505.3l11.75-1v-13.2Zm27.51,16c-4.27-1.12-8-.12-11.85.69a26.29,26.29,0,0,0,1.1,13.09l10.75-1.14Zm-13,223.3a26.44,26.44,0,0,0-.79-13.22c-3.7-.35-7.3-.7-11.09.3-.17,4.46-.7,8.73.31,12.92ZM467,539.29H479V526.36c-4.29-.76-8.09.42-12.08.92Zm46.47-81.9c.05,4-.72,7.94.56,11.88h11.5V456.61C521.29,455.65,517.59,456.69,513.43,457.39ZM510,487V474c-4.27-.83-8,.27-11.9.88A35.51,35.51,0,0,0,498.5,487Zm-43.85-81.65A35.32,35.32,0,0,0,478,404.9V392l-11.88,1.23Zm29.5,242.05c-4.13,0-7.63-.7-11.26.63a46.45,46.45,0,0,0,.28,13.27,20.21,20.21,0,0,0,11-1ZM482.4,475.53c0,4.1-.65,8.16.39,12.36,4,.18,7.79.63,11.52-.74a23.43,23.43,0,0,0-.94-12.47C489.69,474.55,486.2,474.17,482.4,475.53Zm33.1,101.2v13h11.74c1.09-4.64-.49-8.74-.62-13Zm-36.38-2.52c.24-4.7.6-8.92-.28-13.24-4.11,0-7.91-.69-11.63.5-.83,4.42.61,8.41.69,12.74Zm4.29-.45c3.81,1.25,7.43-.07,11.55-.67-.29-4.44.68-8.69-.57-12.89h-11Zm34.1,196v12.15a45.59,45.59,0,0,0,13-.23c-.33-4.09-.65-8-1-11.92ZM466.27,422c4.21-.19,8.17.6,12-1.55,0-3.91.62-7.72-.41-11.48-4.11-.83-7.75.41-11.56.89Zm18,221.47c3.82,1.46,7.41-.56,11.31-.3.33-4.59.62-8.81-.2-13.2-3.84-.13-7.45-.85-11.11.65ZM498,470.37c4.29.14,8.23.95,12.28-1.41-.35-3.82-.7-7.58-1.06-11.49H498Zm19.43,229.51v13.75l11.35-.58V699.88Zm-38.4-104.81-11.2,1c-.27,4.6-.69,8.82.27,13.15,3.88.07,7.5.83,10.93-.67ZM512.7,374a43.06,43.06,0,0,0,.11,13.08c4.12-.21,8,.66,11.92-1.58-.33-3.82-.66-7.68-1-11.5Zm-1.54,238.31c-4.39.15-8.19-.62-11.4.41v13.14c4.14-.06,7.75.61,11.4-.48ZM478.07,424.91c-4.46.69-8.74-1-12.06,2.1.37,4.1.7,7.69,1,11.33,3.88.35,7.33.53,11-.4Zm3,328.12c-4.27.2-8.17-.7-11.93.53v11.85h11.93Zm48.39,12.49V753.29h-12c-.28,4.24-.71,8.16.29,12.23Zm-48.38,4.07c-4.16.12-8-.71-12,.53v12c4.19-.05,8.08.74,12-.48ZM497.52,782c.27-4.42.73-8.33-.25-12.21H485.42c-.24,4.24-.7,8.16.31,12.21ZM508,302.37c.42-4.32.59-8.12-1-11.88-3.66-.71-7.05.32-10.68,1a36.77,36.77,0,0,0,.11,11.94C500.5,304.11,504.07,303,508,302.37Zm-28.8,289.18c.06-4.78.66-8.9-.39-13.11-3.84-.11-7.45-.64-10.86.46v12.65ZM502,786.26v13.12h11a47.22,47.22,0,0,0-.1-13.12Zm-4.54-395a32.27,32.27,0,0,0,0,12.31c4.14,0,7.94.61,11.81-.54-.08-4,.48-7.85-.84-11.77Zm-19.61-2.48c.4-4.36.72-8.08-.12-12a34,34,0,0,0-11.17.19,28.29,28.29,0,0,0-.13,11.8Zm46.74,1.38c-4.43.29-8.41-.87-12.16,1.27.15,4.09-.32,7.94,1.42,11.72l10.74-.77Zm-57.5,115.05h11.09V492.14c-3.88-.08-7.47-.6-11.09.84ZM411.82,339v10l14.63-.87c.34-3.5.88-6.59-.44-9.8Zm54.42,33.4H478.1c-.08-4.26.67-8.15-.48-12.13-4-.28-7.8-.55-11.38,1.24Zm26.41,3.11c-3.86.49-7.61-.84-10.87,1.57v10.81a33.14,33.14,0,0,0,11.34-.24A20.76,20.76,0,0,0,492.65,375.46Zm-10.11,95.89a27.31,27.31,0,0,0,11.42-1.3c-.24-4,.7-7.91-.54-11.66H482.54Zm-4.35,4.46H467.07v12.76c4,.79,7.5-.22,11.12-.87Zm46.52-40.41V423.15c-3.94.15-7.56-.7-11.08.56v12.55C517.56,437,521,435.88,524.71,435.4Zm-42.29,1.87H493.6V424l-11.18,1.29Zm9.77-174.61a26.88,26.88,0,0,0,.26-10.07c-3.58-1.58-6.76-4.1-10.86-4.87v14.94Zm-25.53,180c.23,4.37-.69,8.28.56,12H478V441.68ZM412.57,321.62h14.26c-.06-3.67.64-6.78-.51-10-4.78-.23-9.34-.33-13.75,1.34Zm80.2,37.51c-4.11-.1-7.57,0-11.08,1.39-.21,4-.74,7.92.43,12.21l10.65-1.33Zm-14.67,99.4-11,.72v12.12h11Zm14.48-155.11v-12c-4.05-.66-7.54.26-11,1.14v11.74C485.52,305.06,488.91,303.92,492.58,303.42Zm21.08,103.35a41,41,0,0,0,0,12.9l11-.74V406.77Zm9.43-105.52c-.25-3.93.65-7.86-.66-12l-10.83,1.2c-.24,4.2-.67,8.12.49,12A24.91,24.91,0,0,0,523.09,301.25ZM493.58,454V441.67c-3.91-.26-7.52-.56-11.09.4V454Zm19.58,299.26c-4.1-.25-7.7-.76-11.18.31v11.86c3.93.3,7.52.81,11.18-.37Zm-64.67-433,13.83-1.3c.4-3.28.87-6.23-.2-8.87H448.49Zm28.67-15.71V292.17l-10.92,1.22v11.83C470.06,306.14,473.3,304.74,477.16,304.49Zm35.91,465.32H501.72c.14,4.24-.65,8.16.49,12.06h10.86Zm-4.84-395.09c-3.91-.11-7.5-.61-11.11.89-.42,3.9-.64,7.65.48,11.44,3.7.25,7.16.54,10.63-.41Zm-.14-4.32V358.18l-10.91,1.08a41.4,41.4,0,0,0,.09,12.37Zm4.34.28,11.41-1.21c.24-4.24.65-8-.28-12l-11.13.91Zm-100.5-35.43,14.32-.87c.57-3.43,1.09-6.21,0-9.26l-14.35,1.3Zm19-14.39c4.86.74,9-.15,13.18-1.12V311H430.94Zm17.67,12c4.78-.39,9.25.65,14-1.07-.25-2.92.84-5.75-.81-8.75-4.3.32-8.65-.56-13.18,1Zm118.48-2.78a24.61,24.61,0,0,0,.26,10.05c4.37.59,8.37-.53,12.51-1a22.43,22.43,0,0,0-.38-9.09ZM444,324.5c-4.49-1.06-8.64.28-12.81.88a9.88,9.88,0,0,0-.61,8.22,50.42,50.42,0,0,0,13.38-.35A19.59,19.59,0,0,0,444,324.5Zm90.5,17.17c4.22-.36,8.52.54,12.84-.93-.17-3.28-.3-5.93-.44-8.81-4.62.07-8.72-.77-12.65.86A18.63,18.63,0,0,0,534.51,341.67Zm43.24-38.87-11.84,1.26c0,3.27-.55,6.13,1,9.38L579,312.1C579,308.87,579.6,306.13,577.75,302.8Zm-14.54,37.56c.63-3.61.6-6.57-1.17-9.45-3.86.13-7.68-.56-11.46.57-.31,3.44-.73,6.63,1.17,9.5ZM523.3,305.62c-4.06.43-7.93-.73-11.48,1.55v9.19l11.48-1.15A22.46,22.46,0,0,0,523.3,305.62Zm-56.95,39.62c4,.18,7.67.69,11.6-.72.16-3.14.84-6.23-.52-9.58l-11,1.11A21.23,21.23,0,0,0,466.35,345.24Zm100.58-18.81,12.15-.68c.19-3.31.62-6.16-.44-9.17-4-.19-7.93-.9-11.71.91ZM449.07,231l-9.21-4.58v15.19l9.21-1.26Zm74.72,97.84c-.11-3.49.72-6.48-.8-9.44-3.79-.12-7.45-.55-11.07.8-.42,3-.95,5.84.37,8.64ZM546,318.55a34,34,0,0,0-11.87,1.12c-.06,3.09-1,6,.84,8.94l11-.94C546.73,324.57,546.4,321.77,546,318.55Zm0-4.49a20.86,20.86,0,0,0-.16-8.72c-3.9.67-7.82-.34-11.59,1.18-.57,3-.9,5.76.23,8.67C538.39,315.28,542.24,315.86,546,314.06Zm4.48-9c-.46,3.31-.76,6.13.18,9.06,4.17.79,8-.26,12-1.14-.25-3.18,1-6.35-1.58-8.83Zm12.19,12.55c-4.52-.63-8.36.22-12.21,1.19v8h12.21ZM492.46,334.2l-10.56.85c-.61,3.23-.84,6.16.13,9.11h10.6A25.84,25.84,0,0,0,492.46,334.2Zm31.23,8.14V333c-4.05-.21-7.81-.65-12,.48.27,3,.53,5.76.81,8.83Zm-26.62-21.81v9.07h11.08c-.09-3.28.81-6.23-.54-9.07Zm-.23,13.39c.2,3.5-.68,6.46.56,9.27H508c.55-3.34.8-6.28-.33-9.27Zm14.6-47.81c4,.08,7.64.54,11.29-.62.28-3,.72-5.8-.32-8.68a23.57,23.57,0,0,0-11,1.3ZM463.54,252c-.13-3,.9-5.67-.7-8.5-3.31.43-6.71-.64-10,1a15.62,15.62,0,0,0,0,8.31C456.33,253.62,459.56,252.47,463.54,252Zm32.62,26.65c-.29,3.11-.87,5.76.49,8.56,3.52-.27,7.06.53,10.46-1.06a18.41,18.41,0,0,0,0-8.19C503.38,276.81,500,278.53,496.16,278.66Zm15.43-5.29c3.95.26,7.55.67,11.41-1.15.5-8.17-7.19-6.86-11.41-10.85ZM481.51,288.1c4,.08,7.51.29,11.13-1.49-.05-2.56.69-5.2-.68-8.17l-10.45,1.3Zm-4.4-32.73c-3.73-.13-7.18-.7-10.89.73-.27,2.54-.7,5,.3,7.65a30.67,30.67,0,0,0,10.59-.38ZM496,266.13c-.12,3.11-.67,5.64.4,8.2a19.17,19.17,0,0,0,10.72-1.17v-7.68ZM426,245.78c.5,3.44-.62,6.28.91,9.21l9.38-1.1c.12-2.82.72-5.44-.39-8.11Zm40.1,103.75c0,2.86-1.12,5.36,1.12,7.74L477.62,356a9.3,9.3,0,0,0-.29-7.32Zm-53.4-77.43c-.25,2.79-.67,5.31.3,7.87,3.5.82,6.63-.39,9.87-.94.22-2.85.64-5.38-.3-7.95A18.86,18.86,0,0,0,412.65,272.1Zm10.15-13.31-9.91.47c-.46,3.06-.89,5.67.17,8.39,3.29,0,6.46.51,9.74-.86Zm-9.88-12.06c-.24,3.09-.88,5.56.07,8.15h9.73c.33-3,.89-5.63-.34-8.15Zm-.21-11.33c.13,2.4-.82,4.86.58,7.71l9.42-.75v-8.15A19.36,19.36,0,0,0,412.71,235.4Zm27.11,55.37a22.48,22.48,0,0,0,8.95-.24,20.22,20.22,0,0,0,.15-8.66c-3.17-.83-5.95.64-9.1.74Zm53,57.85H481.55c.16,2.66-.75,5,.77,7.44,3.58-.13,7.26.5,10.52-1.65Zm-26.22-108c.59,4.39-.63,7.86.74,11.23l9.8-.79v-5.12Zm-40,26.06c3.21.18,6.08.72,8.89-.68.31-2.78.69-5.46-.34-8.45l-8.51.91A16.22,16.22,0,0,0,426.61,266.63Zm13.14,3.43c-.09,3.07-.67,5.61.42,8.14a19.31,19.31,0,0,0,8.68-.4,17.09,17.09,0,0,0-.18-8.69Zm-13.14,9.17c3.21.2,6.07.66,9-1.1,0-2.57.66-5.22-.57-8.19L426.61,271A16.85,16.85,0,0,0,426.61,279.23Zm26.64,2.48c-.13,3.09-.71,5.64.46,8.22,2.91.33,5.73.56,8.88-.54-.25-2.82.93-5.66-.91-8.51Zm-26.91-39.52c3.49.38,6.45.74,9.19-1.16.25-2.59.68-5.08-.42-7.86l-8.77,1.08Zm36.29,22.54c-.21-3.17.74-5.84-.77-8.48-2.93-.1-5.79-.63-8.43.63v7.85Zm-27.17-35.06c1.32-8-5-7-8.85-9.79-.53,4-1,6.9.17,9.79ZM496.1,262c4.1-.32,7.72.77,11.72-1.17-3.77-3.07-7.57-4.53-11.72-6.27Zm-42.82-21.59c3.43.06,6.39.53,10-.93-2.73-3.62-6.14-4.65-10-5.84Z"/><path class="cls-2" d="M708.57,777.25c0,13.12,0,25.69,0,38.26,0,1.87.37,3.77-1.75,5.12a387.23,387.23,0,0,1-83.64,40.31V521l146-10V766c0,6.85-4.45,11.26-11.35,11.26Zm.34-62v35.53h54.71V715.2ZM635.06,686h54.58V650.7H635.06Zm71.78,2h58.82v-39.3H706.84Zm-15.06,25.32H633.17v39.28h58.61Z"/><path class="cls-2" d="M349.41,527.57l53.22-7.68v81.52l-6.52.36v42.3l6.43.43v23.7l-6.45.46V711l6.44.45v23.69l-6.43.46v42.33l6.59.53v91.3c-18.36-4.28-35.74-10.39-53.28-17.5Z"/><path class="cls-2" d="M287,543.82l-61.9-10.42V769.33c-6.56-6-11.73-10.65-11.58-20.4.89-57.69,1-115.4,1.23-173.1.11-21.32,0-42.64,0-64.84l86.09,25.69V827C291,824.66,287,819.84,287,810.23V543.82Z"/><path class="cls-3" d="M54.63,681.85c-1.7-7.35.15-9.83,8.1-10.67.26-3-2.23-2.77-4-3.47-15.84-6.23-27.82-16.2-32-33.56-.91-3.78-.17-7.29,2.56-10.85l8.13,6.21c.49-5,3.29-7.37,8.18-7.58-17.73-9.91-28-32.17-21.92-47.11,8.43,3.76,15.16,12.12,26.52,33.07,1-7.3,1.3-14.31,3.53-21.41l4.4.9v18.36c3.35-9.41,5.07-18,15.49-19.79,4.41,13,4.8,25.3-4.79,36.83,6.5.7,9.08,4.15,7.62,10.78,4.7-3.34,7-1.14,8.65,2.85,3.68,9,2.82,19.18-2.63,30,5.14.53,9.1,2.61,7.79,8.5-1.22,5.54-5.49,6-10.33,4.24,1,4.52,4.46,11.26,8.21,16.14.33-7.61,1.88-14.57,5.55-20.94,1-1.65,1.71-3.76,4.13-3.49,2.17.24,3.27,2.05,4,3.87,3.84,9.93,4.74,20,1.4,30.28,0,.41-.09.81-.14,1.21l1.19-.32c3.71-1.05,7.1-.78,9.09,3a6.13,6.13,0,0,1-1.31,7.88c-3.11,2.77-6.39,2.28-9.53-.17l-1.27-1.67c-.18-1.89-.36-3.78-.55-5.83-1.29.46-2.58.66-3.12,2.53l2.79,4.1,1.32,1.63c6.58,11,15,20.51,22.81,30.44,0,1.89-1.39,2.55-2.86,3.82-9.73-8.15-17.76-18-26.28-27.93-1.82,4.56-4.67,7.4-9.64,5.84-2.89-.9-4.37-3.22-4.25-6.34.18-4.65,3.37-6.22,7.38-6.77.27-1.89-1-2.72-1.79-3.73-3.28-.19-6.49-.21-9.66-.59-13.54-1.6-23.91-8.12-30.72-20.09-1.91-3.36-4.84-7.18-2-10.59s6.09.77,9.19,1.42c.75.3,1.26,1.4,2.49.61Zm21.15,13.78c.06.18.12.37.12.35a3.11,3.11,0,0,1-.18-.29L67.33,680.1c-2.28,3.49-5.1,5.16-9.17,4.49C64.73,687.3,69.41,692.79,75.78,695.63ZM74.7,635.56c-3.3,1.05-6.64,1.92-9.31-1.24-2.86-3.39-1.58-6.76.74-10.31l-5.33.77c1.53,10,4.34,19.25,8.21,30.44.59-8.3,3.39-13.88,5.73-19.61l.72-.28-.38-.46Zm-30.23.24,10.2,11.32c-1.35-6.8-2.43-12.26-3.71-18.67C50.56,633,48.1,634.73,44.47,635.8Z"/><path class="cls-3" d="M892.45,705c-3.1-9.6-2.27-19.13.74-28.55.78-2.44,1.82-5.3,4.79-5.56s3.69,2.76,4.78,4.81a42.27,42.27,0,0,1,4.68,20c4-5.24,6.12-10.55,9-16.2-5.71,1-10.83,1-11.14-6-.24-5.15,3.45-6.81,8.31-6.87-6-9.46-6.59-19.36-3.12-29.61,1.34-4,3.55-6.55,8.44-4-.74-5.92,1.34-9.49,8.05-10-9.55-11.43-9.3-23.74-5.05-36.54,7.64.63,10,3.33,15.43,18.1V588.29c1.26-1.68,2.78-1.3,4.39-1.42,1.85,3.11,1.94,6.68,2.42,10.13s.82,7,1.44,12.34a62.92,62.92,0,0,1,26-34.8c7.2,13.58-4.52,39.56-21.59,47.09,4.69.82,8.09,2.57,8.06,8l8.42-6.37a12.94,12.94,0,0,1,2.29,12c-4.59,16.75-16.38,26.51-32,32.43-1.8.69-3.94.69-4,3.35,8.91,1.38,10.71,4.31,7.48,12.11l-.75.3.47.3.18-.69c2,.49,3.27-1.08,4.89-1.66,1.92-.68,4-2.23,5.86-.45,2.06,2,1.33,4.62.26,6.76C945.26,699.64,937,708.84,923,711.11a67.86,67.86,0,0,1-11.49,1.24c-2.66,0-3.87,1-4.77,3.46,4.11,1.49,8.39,3.09,7.36,8.84a5.85,5.85,0,0,1-5.58,5.14c-4.34.48-6.46-2.06-7.83-6.42-8.6,9.83-16.54,19.72-26.38,28.19l-3.53-3.23c8.4-10.46,16.78-20.64,25-33.25-5.23,3.48-9.25,5.15-12.83.74a6.06,6.06,0,0,1-.46-7.24c2.06-3.57,5.39-3.65,8.93-2.85l1.13.43C892.54,705.77,892.49,705.37,892.45,705Zm28.85-9.75,16.36-11c-4.28,1.07-7-.75-9.37-4.07l-7.54,14.57c-.16.3-.31.61-.47.92ZM920,635.12c4.09,6.28,5.61,12.19,7,19.44,3.41-10.51,6.47-19.85,7.91-30l-5.46-.28c2.69,3.47,3.43,6.68,1,9.83S924.67,636.88,920,635.12Zm24.78-7.78c-1.22,6.6-2.36,12.78-3.66,19.86l10-11.28C947.07,634.45,944.33,632,944.78,627.34ZM894.59,708.2c.14,2.92.24,5,.4,8.36l3.59-5.65Zm26.2-38c-1-1-2-1.56-3.4-1.1.4,1.73.78,3.34,1.32,5.65C919.61,672.73,920.2,671.45,920.79,670.16ZM919.71,634l-.26-.32c-.09.1-.26.19-.27.29s.15.22.24.32Z"/><path class="cls-2" d="M20.43,365.8l-4.8-2c3.5-8.69,6.9-17.15,10.27-25.53L88.24,334,45.71,288.2,55,264.45c1.73-.53,3,.45,4.73,1.71-4.79,7.79.34,10.11,6.71,12.51,14.62,5.54,29,11.71,43.59,17.33,8.94,3.45,9,3.21,14-4.75l4.25,1.57L115.13,326l-4.78-1.86c5.24-8,.21-10.48-6.09-12.85-12.07-4.56-24-9.54-36-14.25-1.41-.55-2.81-1.76-5.26-.66,2,2.27,3.74,4.43,5.63,6.47q18.48,19.88,37,39.69c1.79,1.91,3.84,3.7,1.28,6.48l-67.53,4.7-.27,1.15c4.6,1.85,9.18,3.74,13.8,5.55,9.31,3.63,18.71,7,27.94,10.88,5.94,2.48,11,3.7,12.57-4.38,2.29-.66,3.51.46,4.87,1.25l-9.74,24.55-4.66-1.84c5.35-8.48-.7-10.72-6.8-13.12C62.58,372,48,366.33,33.6,360.31,27.38,357.72,22.29,356.78,20.43,365.8ZM63,295.4l-.33-.3-.19.6c.11,0,.24.05.32,0S62.9,295.52,63,295.4Z"/><path class="cls-2" d="M346.29,106.25c-.71-1.45-1.31-2.68-2.31-4.7,10.81-1.92,7.12-8.07,4.48-14.07-5.9-13.42-11.72-26.89-18.39-42.24-.59,12.22-1.2,22.51-1.54,32.81-.37,11.13-.47,22.28-.74,33.42,0,1.8.72,3.85-1.79,5s-3.53-.71-4.91-1.9Q298.73,95.24,276.36,75.9c-1.14-1-2.07-2.65-4.41-1.85,6.05,13.45,12.21,26.8,18,40.3,2.53,5.86,5,10.68,11.94,5.74,2.24,1.06,2.09,2.81,2.87,4.21l-24.35,10.64-2.26-4.53c10.23-2.21,7.07-8.3,4.43-14.34-6.2-14.18-12.46-28.33-18.43-42.61-2.57-6.12-5.44-10.6-12.49-6.15-1.94-.92-2-2.46-2.81-4.17l25.33-11,47.71,41.14v-62l24.76-11c1.95.72,1.54,2.65,2.55,3.8-8.24,5.15-8.24,5.15-4.31,14.23,6.28,14.5,12.64,29,18.83,43.5,2.54,6,5.46,10.64,12.93,5.65l2.24,4.5Z"/><path class="cls-2" d="M989.62,463.69l4.64-.4v35.25c-1.52,1.07-2.93.79-4.65.35-.36-2.56-.72-5.21-1.13-8.18-8.8-2-17.61-1.59-26.77-1.73-1.33,12.25-1.11,24.26-1,36.75,8.39,0,16.44.36,24.43-.12,5.4-.33,2.47-5.75,4.14-8.57a5.19,5.19,0,0,1,4.22.11v34.59c-1.85,1.28-3.49,1.13-5.72.11,2.65-9.47-3.91-9.2-10.24-9.31-15.66-.28-31.32-.46-47-1-6.67-.23-12.49-.23-10.76,9.23h-4.71V515.34H920c.35,2.71.68,5.24,1.09,8.47,10.56,2,21.31,1.15,32.57,1.75V488.85c-10.33-.33-20.86-1.42-31.24.36-2.07,2.55-1.19,5.49-1.93,8.36l-4.38.23V462.59c1.76-1.31,3.33-.58,5.64-.46-2.69,10.88,5,9.49,11.49,9.62,15.82.31,31.65.48,47.46,1.05C987,473,991.15,471.79,989.62,463.69Z"/><path class="cls-2" d="M838.79,140.17c-5.88-7.25-9.67-3.39-13.72,1.86-9.77,12.66-19.87,25.06-29.74,37.64-5.78,7.36-5.71,7.43.83,14.1l-2.71,3.8-28.13-22.36,2.88-3.69,7.42,4.53c7.9-7.43,14-16.11,21.15-24.92l-28.71-22.9c-6.53,8-12.92,15.5-18.14,23.85-3.07,4.91,3.65,5.16,4.18,9a5.92,5.92,0,0,1-2.71,3l-27.82-22,3.12-4.05c7,8.39,10.77,2.07,14.87-3.14,9.5-12,19-24.11,28.61-36.06,4.09-5.07,7.89-9.84-1.08-14.06l3.27-4.15,28,22.34L797.2,107c-5.79-7-9.77-3.27-13.7,1.86-3.53,4.61-7.3,9-11.31,14L801,145.69c5.87-7.28,11.69-13.95,16.45-22.35l-6.26-5.07a6.66,6.66,0,0,1,3.26-4.16l27.36,21.69C841.76,137.53,840.29,138.36,838.79,140.17Z"/><path class="cls-2" d="M929.16,258c1.4-1.31,2.53-2.16,4.71-2,5.41,14.6,13.42,28.24,19.53,42.78,3,7,3.42,14.08-2.74,19.65-6.35,5.74-13.92,6.19-21.75,3.14-3.5-1.36-6.34-3.77-9.65-6.86-7.49,13.81-17.7,25.66-21.8,40.78-.22,1.78-1.71,2.19-3.55,2.55l-8.7-19c9-13.62,18.8-26.38,27-42.05,3.21,7.46,6.95,13,14.91,12.94a18.7,18.7,0,0,0,12.09-4.26c6.17-5.15,5.95-13-.57-22.64-1.68-.47-3,.54-4.47,1.18-15.7,7.12-31.35,14.38-47.11,21.39-6.06,2.69-11.21,5.36-5.43,13.05l-4.71,2.14-14.72-32.14a6.36,6.36,0,0,1,4.29-2.2c1.3,2.18,2.59,4.36,3.78,6.37,2.89.91,5-.46,7.23-1.35,15.55-6.29,30.71-13.45,45.87-20.63C929.44,268,934.47,265.39,929.16,258Z"/><path class="cls-2" d="M861.59,163l3.68-3L887,188.28,883.76,191c-.44-.25-.81-.33-1-.55-3.68-5.52-7.65-5-12.42-1.15-10.35,8.25-21.09,16-31.39,24.36-9.08,7.35-9.49,15.57-1.94,25.89,7.79,10.62,16.58,13.3,26,6.79,10.88-7.51,21.1-16,31.78-23.82,5.53-4,7.73-8.16,1.91-13.51.7-1.9,2.1-2.54,3.66-3.3l15.86,20.45-3.15,2.74c-.51-.2-.92-.23-1-.43-3-4.62-6.34-4.26-10.46-1.14-10.94,8.29-21.89,16.58-33.18,24.38-13.55,9.35-26.36,7.65-37.53-4.57a62.87,62.87,0,0,1-7.58-10c-9.79-16.32-7.69-26.72,7.38-38.3,9.6-7.39,19.2-14.78,28.7-22.3C866.35,171.05,866.28,171,861.59,163Z"/><path class="cls-2" d="M79.09,468.08c-1.43.08-3,.34-3.35-1.31-1-5.2-5-5.38-9.06-6.14-17-3.23-34.21-4.83-51.27-7.46-6.94-1.07-9.43,2-9.63,8-1.79.88-3.08.3-4.58-.56C3.63,441.36,6.08,422,8.61,402l16.84,3.88a5.06,5.06,0,0,1-.59,4.33c-2.89.47-5.82-1-9.11.51-2.66,7.64-3.78,15.85-4.27,24.44,8.91,2.67,17.88,3.21,26.91,4.63,1.91-6.24,2.38-12.36,2.65-18.43.24-5.15-5.24-3-7.52-5.06-.56-1.34-.09-2.51.77-4.11l24,3.19-.43,4.21c-10.19.28-13.18,5.53-12,21.16l29.11,3.94a122.13,122.13,0,0,0,3.15-25.33c.12-3.77-2.78-4.25-5.34-5.16l-5.38-1.91a5.4,5.4,0,0,1,.76-4.52l18.67,3.83C84.23,430.36,81.69,449,79.09,468.08Z"/><path class="cls-2" d="M182.6,111.44l6.18-5q21,11.22,42.09,22.47c7.41,3.94,14.95,7.65,22.25,11.77,4.26,2.41,8.18,4.17,12.11-.65l3.38,3.78-27.67,22.3L238,162.64l5.75-6c-4.42-5.06-10.6-6.82-15.79-10.52l-22.49,18c1.13,3.37,2.09,6.43,3.17,9.44,3.09,8.58,3.37,8.65,11.39,3.32l3.2,3.36-20.7,16.7-2.39-3c.18-.77.14-1.22.33-1.36,4.12-3.12,4.14-7,2.74-11.59C196.28,157.94,189.54,134.89,182.6,111.44Zm38.82,31.28-27-14.82c3.17,10.35,6,19.45,9,29.28Z"/><path class="cls-2" d="M714.47,123.25c-1,4-3.06,5.9-5.77,6.21-18.05,2-49.87-12.53-53-38.06-3.75-30.46,21-53.1,50.74-45.83,13.14,3.22,27.45,11.86,35.26,21.38l-9.95,15.73c-1.65.26-2.76-.62-4-1.73a12,12,0,0,1,.85-2.12c4-6.22,1.86-11.48-2.89-15.94-12.16-11.4-33.32-16.23-46.36,4.59-5.74,9.17-8.81,19.12-6.37,30,3.2,14.26,16.51,24.63,32.64,25.74C708.31,123.41,711,123.25,714.47,123.25Z"/><path class="cls-2" d="M987.46,430.49l-19,1.72-1.26-3.8a23.33,23.33,0,0,1,2.76-1.16c8-2.21,10.64-5.43,11.07-13.86,1.14-21.93-14.86-35.73-36.43-31.42-14.89,3-26.39,10.28-29.83,25.95-2.44,11.11,1.22,21.35,7.52,30.65.9,1.33,1.8,2.66,2.65,4,.13.21,0,.59-.06,1.24a7.33,7.33,0,0,1-7.73-1.86c-12.34-13.54-19.34-46.5-2.21-64.27,15.79-16.4,51.41-22.25,66.67,9.31A69.59,69.59,0,0,1,987.46,430.49Z"/><path class="cls-2" d="M173.06,190.49,169.91,194c-9.38-5.12-11.87-4-21,9.71,7.1,5.71,14.12,11.64,21.43,17.17,5.69,4.29,6.92-3.15,11-4.49,1.16.09,2,1.34,3.1,2.62l-23.91,28a5.38,5.38,0,0,1-3.49-2.94l4.83-6.88c-15.88-15.91-33.2-29.73-50.4-43.13-3.58.78-4.72,3.75-7.17,5.08-1.71-.22-2.61-1.51-3.75-2.74l36.88-43.71,13.34,12.18-2.65,3.54L140.31,163c-7.56,4.21-12,11.14-17.32,18l20.82,18.28c2.92-3.3,5.49-6.36,8.22-9.27,3.71-3.95,5-7.66-.57-10.75-.27-2.3,1.66-2.88,2.51-4.88Z"/><path class="cls-2" d="M168.6,563.11V698.27a13.73,13.73,0,0,1-4.43-10.64c.18-13,.07-26,.07-40.43l-4.93,5.57v-27c-4.2,3.45-7.3,6.26-6.85,11.73s.12,11.3.1,17c0,1.91.14,3.91-2.59,5.46V636.46c-7.46,3.58-6.27,9.57-6.27,15.43-2.08-4.4-5.1-8.38-5.09-13.55,0-10.17.1-20.35.15-30.52a5.79,5.79,0,0,1,.89-3.65C149.15,590.77,158.59,577.33,168.6,563.11Z"/><path class="cls-2" d="M431.24,78c.39,2,.62,3.28.93,5l-34.62,7.13c-1.24-1-.87-2.75-1.43-4.79,10.82-.16,8.21-7.15,6.91-13.47q-5-24.16-10-48.33a48.43,48.43,0,0,0-1.83-5.6c-3.05-1.06-5.55-.06-8.16.18-1.3-1.16-1.36-2.75-1.52-4.68L416,6.32c1.42,1.11,1.33,2.7,1.2,4.52l-7.77,2.77c-.15,9.35,2.58,18,4.16,26.87,1.76,9.84,4.31,19.53,6,29.37C420.75,76.43,422.48,81.42,431.24,78Z"/><path class="cls-2" d="M773.39,765.89v-67.7l50.24,5c-5,11.13-5.73,11.65-16.62,11-3.38-.2-6.75-.52-10.13-.74s-6.75-.36-10.91-.59c0,9.31-1,18.55.24,27.5C787.81,752,782.13,759.1,773.39,765.89Z"/><path class="cls-2" d="M205.33,747.54c-3.53-2.46-5.72-4.66-5.71-8.75q.09-90.88,0-181.77c0-4.52,3.26-6.7,5.73-10.49Z"/><path class="cls-2" d="M189.53,729c-3.71-4.24-6.33-7.87-6.29-13.72q.48-66.62.12-133.25c0-5.74,1.86-9.83,6.17-13.94Z"/><path class="cls-2" d="M234.35,765.93l11.85,1.85v12.91C234.83,782.37,232.94,780.11,234.35,765.93Z"/><path class="cls-2" d="M265.44,624.83V612.41l12.1,1.87v12.55Z"/><path class="cls-2" d="M277.58,563.4l-12.09-1.87V549.07l12.09,1.84Z"/><path class="cls-2" d="M265.44,754.85l12.16,2v12.43l-12.16-1.94Z"/><path class="cls-2" d="M277.48,737.64l-12-1.94V723.25l12,1.85Z"/><path class="cls-2" d="M265.46,719.88V707.37l12.15,1.94v12.42Z"/><path class="cls-2" d="M277.56,645.91v12.46l-12-1.76V644.14Z"/><path class="cls-2" d="M277.6,582.54V595l-12.08-1.71v-12.5Z"/><path class="cls-2" d="M277.57,753.39l-11.9-1.74c-.79-4.07-.52-8-.14-12.47l12,1.7Z"/><path class="cls-2" d="M265.51,691.66l11.94,1.67v12.49l-11.94-1.73Z"/><path class="cls-2" d="M265.48,596.57l12,1.81v12.49l-12-1.78Z"/><path class="cls-2" d="M234.18,667.51V655.07l12.08,1.85v12.54Z"/><path class="cls-2" d="M261.72,751.07l-11.92-2V736.62l11.92,1.86Z"/><path class="cls-2" d="M246.19,558.56l-11.95-1.85V544.26l11.95,1.79Z"/><path class="cls-2" d="M249.88,546.63l11.86,1.85v12.45l-11.86-1.74Z"/><path class="cls-2" d="M234.22,572.49V560l12,1.93v12.49Z"/><path class="cls-2" d="M234.19,651.76V639.28l12.09,1.8v12.44Z"/><path class="cls-2" d="M261.82,691v12.48l-12.06-1.85V689.16Z"/><path class="cls-2" d="M246.27,609.43v12.5L234.2,620V607.58Z"/><path class="cls-2" d="M246.29,704.43v12.48L234.22,715V702.57Z"/><path class="cls-2" d="M246.17,764.45l-11.87-1.92V750.15l11.87,1.71Z"/><path class="cls-2" d="M246.28,625.23V637.7l-12.05-1.79V623.44Z"/><path class="cls-2" d="M234.17,683.33V671l12,1.78v12.52Z"/><path class="cls-2" d="M261.8,596v12.44l-12-1.76v-12.5Z"/><path class="cls-2" d="M246.31,593.69v12.36l-12.08-1.81v-12C238.35,591.74,242.24,593.07,246.31,593.69Z"/><path class="cls-2" d="M261.8,643.54V656l-12.06-1.84V641.64Z"/><path class="cls-2" d="M234.34,686.78l11.84,1.76V701l-11.84-1.64Z"/><path class="cls-2" d="M234.21,746.81V734.38l12,1.61v12.48Z"/><path class="cls-2" d="M249.79,657.61l11.85,1.6v12.48L249.79,670Z"/><path class="cls-2" d="M234.29,576l11.83,1.63v12.44l-11.83-1.6Z"/><path class="cls-2" d="M249.77,768.36l11.91,1.75V781H249.77Z"/><path class="cls-2" d="M530.28,819.63H517.54V804c4-1,8.15-.34,12.74-.41Z"/><path class="cls-2" d="M481,819.87H469.89c-.31-5.24-.61-10.42-.92-15.82,4-1.08,7.78-.51,12-.41Z"/><path class="cls-2" d="M513,819.69H502V804c3.5-1.25,7.1-.31,11-.54Z"/><path class="cls-2" d="M517.49,786.22h12.74v13.14H517.49Z"/><path class="cls-2" d="M496.47,664.72v14H484.62V665.42C488.2,664.32,492,664.84,496.47,664.72Z"/><path class="cls-2" d="M529.23,731.29H517.47V717.63c3.78-1,7.56-.46,11.76-.35Z"/><path class="cls-2" d="M500.91,717.55H513v13.82H501.34C500.44,726.89,500.62,722.47,500.91,717.55Z"/><path class="cls-2" d="M496.57,682.34v14H484.65v-13.1C488.41,681.33,492.33,682.74,496.57,682.34Z"/><path class="cls-2" d="M515.59,611.88a39.54,39.54,0,0,1,11.76-.26,51.83,51.83,0,0,1,.09,13.46c-4,1-7.74.76-11.85.48Z"/><path class="cls-2" d="M527.4,642.92H516.07c-1.14-4.35-.74-8.71-.3-13.16,3.85-1.49,7.55-.51,11.63-.92Z"/><path class="cls-2" d="M482.46,544.1c4-2.14,7.84-1.42,12.06-1.51v13.69c-3.63,1-7.38.63-11.29.16C481.79,552.21,482.9,548.08,482.46,544.1Z"/><path class="cls-2" d="M511,608.11H499.22v-13L511,593.87Z"/><path class="cls-2" d="M529.38,748.85H517.6a47.69,47.69,0,0,1-.09-13.13c4-.06,7.62-1.86,11.87-.31Z"/><path class="cls-2" d="M527.71,607.27l-12.15,1.05V594.21h11.7C528.35,598.4,527.54,602.65,527.71,607.27Z"/><path class="cls-2" d="M527.72,646.62c.31,5.1.56,9.19.84,13.74H516.65c-1-4.19-.46-8.62-.39-13.27C520.14,645.85,523.85,646.54,527.72,646.62Z"/><path class="cls-2" d="M526.71,572.06c-3.75,1-7.28,1.84-11.16.76-.8-4.42-1.48-8.78-.94-13.57H526.5C527.39,563.51,527.05,567.74,526.71,572.06Z"/><path class="cls-2" d="M526.53,537.06c-3.87,1.43-7.66,1.51-11.88,1.18v-13.1l11.65-1.22A49.66,49.66,0,0,1,526.53,537.06Z"/><path class="cls-2" d="M511.17,577.53v12.59c-3.8,1.33-7.61.74-11.91.64V577.53Z"/><path class="cls-2" d="M480.84,713.94H469.05a44.92,44.92,0,0,1-.15-13.11h11.94Z"/><path class="cls-2" d="M482.66,522V509.1c3.81-1,7.56-.72,11.52-.36,1,4.21.69,8.33.53,12.68C490.93,522.61,487.14,521.9,482.66,522Z"/><path class="cls-2" d="M498.18,491.21H510v12.9H498.4C497.55,500.06,497.94,495.94,498.18,491.21Z"/><path class="cls-2" d="M481,718.3v13.16H469v-12.9C472.78,717.54,476.69,718.07,481,718.3Z"/><path class="cls-2" d="M495.36,595.12V608a38.32,38.32,0,0,1-11.68.29,48,48,0,0,1-.19-13.12Z"/><path class="cls-2" d="M528.55,695.54H516.7V682.6a39,39,0,0,1,11.55-.28A47,47,0,0,1,528.55,695.54Z"/><path class="cls-2" d="M469,748.84V736.06c3.95-1,7.75-.48,11.84-.33a43.89,43.89,0,0,1,.24,13.11Z"/><path class="cls-2" d="M479.16,543.73v12.89H467.32c-1.12-4-.23-8.3-.47-12.89Z"/><path class="cls-2" d="M480.13,665.72v13.21H468.19V666.15C471.9,665,475.72,665.68,480.13,665.72Z"/><path class="cls-2" d="M469.05,799.65v-13.1c3.87-1.07,7.79-.54,12-.3v12.84C477.22,800.25,473.42,799.42,469.05,799.65Z"/><path class="cls-2" d="M499.89,643.08V630.31c3.93-1,7.72-.51,12-.31v12.85C508.18,643.83,504.26,643.35,499.89,643.08Z"/><path class="cls-2" d="M485.38,786.18h11.85c1.2,4.24.27,8.5.56,13.11H485.63C484.74,795.2,485.22,791,485.38,786.18Z"/><path class="cls-2" d="M495.57,590.75l-12,.61V578c3.51-.93,7-.7,10.73-.51C496.72,581.58,495.35,585.91,495.57,590.75Z"/><path class="cls-2" d="M500,660.52v-13h12v13Z"/><path class="cls-2" d="M514.72,541.87h11.72c.86,4,.42,8.27.22,12.91H514.72Z"/><path class="cls-2" d="M482.72,526.06h11.79v12.36c-3.71,1.59-7.6,1-11.79.78Z"/><path class="cls-2" d="M513.51,453.07V440.72c3.77-1.78,7.61-.85,11.65-1.16a39.39,39.39,0,0,1,.23,12.67C521.5,453.56,517.73,453,513.51,453.07Z"/><path class="cls-2" d="M514.5,487c-1.65-4.47-1-8.59-.79-13.13h11.81v12.35C522.34,487.73,518.58,486.86,514.5,487Z"/><path class="cls-2" d="M481.18,696.43h-12.3c-.32-4.36-.63-8.43-.95-12.76a33.21,33.21,0,0,1,12.25-.23C480.51,687.71,480.82,691.8,481.18,696.43Z"/><path class="cls-2" d="M482.65,492.17l11.75-1.1v13.2l-11.75,1Z"/><path class="cls-2" d="M510.16,508.16V520.8l-10.75,1.14a26.29,26.29,0,0,1-1.1-13.09C502.19,508,505.89,507,510.16,508.16Z"/><path class="cls-2" d="M497.16,731.46H485.59c-1-4.19-.48-8.46-.31-12.92,3.79-1,7.39-.65,11.09-.3A26.44,26.44,0,0,1,497.16,731.46Z"/><path class="cls-2" d="M467,539.29v-12c4-.5,7.79-1.68,12.08-.92v12.93Z"/><path class="cls-2" d="M513.43,457.39c4.16-.7,7.86-1.74,12.06-.78v12.66H514C512.71,465.33,513.48,461.4,513.43,457.39Z"/><path class="cls-2" d="M510,487H498.5a35.51,35.51,0,0,1-.42-12.12c3.94-.61,7.63-1.71,11.9-.88Z"/><path class="cls-2" d="M466.13,405.31V393.18L478,392V404.9A35.32,35.32,0,0,1,466.13,405.31Z"/><path class="cls-2" d="M495.63,647.36v12.93a20.21,20.21,0,0,1-11,1,46.45,46.45,0,0,1-.28-13.27C488,646.66,491.5,647.37,495.63,647.36Z"/><path class="cls-2" d="M482.4,475.53c3.8-1.36,7.29-1,11-.85a23.43,23.43,0,0,1,.94,12.47c-3.73,1.37-7.51.92-11.52.74C481.75,483.69,482.39,479.63,482.4,475.53Z"/><path class="cls-2" d="M515.5,576.73h11.12c.13,4.27,1.71,8.37.62,13H515.5Z"/><path class="cls-2" d="M479.12,574.21H467.9c-.08-4.33-1.52-8.32-.69-12.74,3.72-1.19,7.52-.47,11.63-.5C479.72,565.29,479.36,569.51,479.12,574.21Z"/><path class="cls-2" d="M483.41,573.76V560.2h11c1.25,4.2.28,8.45.57,12.89C490.84,573.69,487.22,575,483.41,573.76Z"/><path class="cls-2" d="M517.51,769.76h12c.33,4,.65,7.83,1,11.92a45.59,45.59,0,0,1-13,.23Z"/><path class="cls-2" d="M466.27,422V409.87c3.81-.48,7.45-1.72,11.56-.89,1,3.76.41,7.57.41,11.48C474.44,422.61,470.48,421.82,466.27,422Z"/><path class="cls-2" d="M484.27,643.48V630.63c3.66-1.5,7.27-.78,11.11-.65.82,4.39.53,8.61.2,13.2C491.68,642.92,488.09,644.94,484.27,643.48Z"/><path class="cls-2" d="M498,470.37v-12.9h11.22c.36,3.91.71,7.67,1.06,11.49C506.26,471.32,502.32,470.51,498,470.37Z"/><path class="cls-2" d="M517.46,699.88h11.35v13.17l-11.35.58Z"/><path class="cls-2" d="M479.06,595.07v13.45c-3.43,1.5-7.05.74-10.93.67-1-4.33-.54-8.55-.27-13.15Z"/><path class="cls-2" d="M512.7,374h11c.33,3.82.66,7.68,1,11.5-3.93,2.24-7.8,1.37-11.92,1.58A43.06,43.06,0,0,1,512.7,374Z"/><path class="cls-2" d="M511.16,612.28v13.07c-3.65,1.09-7.26.42-11.4.48V612.69C503,611.66,506.77,612.43,511.16,612.28Z"/><path class="cls-2" d="M478.07,424.91v13c-3.7.93-7.15.75-11,.4-.33-3.64-.66-7.23-1-11.33C469.33,424,473.61,425.6,478.07,424.91Z"/><path class="cls-2" d="M481.08,753v12.38H469.15V753.56C472.91,752.33,476.81,753.23,481.08,753Z"/><path class="cls-2" d="M529.47,765.52H517.73c-1-4.07-.57-8-.29-12.23h12Z"/><path class="cls-2" d="M481.09,769.59v12c-3.92,1.22-7.81.43-12,.48v-12C473.05,768.88,476.93,769.71,481.09,769.59Z"/><path class="cls-2" d="M497.52,782H485.73c-1-4-.55-8-.31-12.21h11.85C498.25,773.7,497.79,777.61,497.52,782Z"/><path class="cls-2" d="M508,302.37c-3.95.67-7.52,1.74-11.54,1a36.77,36.77,0,0,1-.11-11.94c3.63-.64,7-1.67,10.68-1C508.61,294.25,508.44,298.05,508,302.37Z"/><path class="cls-2" d="M479.22,591.55H468V578.9c3.41-1.1,7-.57,10.86-.46C479.88,582.65,479.28,586.77,479.22,591.55Z"/><path class="cls-2" d="M502,786.26h10.88a47.22,47.22,0,0,1,.1,13.12H502Z"/><path class="cls-2" d="M497.46,391.27h11c1.32,3.92.76,7.75.84,11.77-3.87,1.15-7.67.51-11.81.54A32.27,32.27,0,0,1,497.46,391.27Z"/><path class="cls-2" d="M477.85,388.79H466.43a28.29,28.29,0,0,1,.13-11.8,34,34,0,0,1,11.17-.19C478.57,380.71,478.25,384.43,477.85,388.79Z"/><path class="cls-2" d="M524.59,390.17v12.22l-10.74.77c-1.74-3.78-1.27-7.63-1.42-11.72C516.18,389.3,520.16,390.46,524.59,390.17Z"/><path class="cls-2" d="M467.09,505.22V493c3.62-1.44,7.21-.92,11.09-.84v13.08Z"/><path class="cls-2" d="M411.82,339l14.19-.7c1.32,3.21.78,6.3.44,9.8l-14.63.87Z"/><path class="cls-2" d="M466.24,372.35V361.46c3.58-1.79,7.37-1.52,11.38-1.24,1.15,4,.4,7.87.48,12.13Z"/><path class="cls-2" d="M492.65,375.46a20.76,20.76,0,0,1,.47,12.14,33.14,33.14,0,0,1-11.34.24V377C485,374.62,488.79,376,492.65,375.46Z"/><path class="cls-2" d="M482.54,471.35v-13h10.88c1.24,3.75.3,7.69.54,11.66A27.31,27.31,0,0,1,482.54,471.35Z"/><path class="cls-2" d="M478.19,475.81V487.7c-3.62.65-7.11,1.66-11.12.87V475.81Z"/><path class="cls-2" d="M524.71,435.4c-3.75.48-7.15,1.58-11.08.86V423.71c3.52-1.26,7.14-.41,11.08-.56Z"/><path class="cls-2" d="M482.42,437.27v-12L493.6,424v13.28Z"/><path class="cls-2" d="M492.19,262.66h-10.6V247.72c4.1.77,7.28,3.29,10.86,4.87A26.88,26.88,0,0,1,492.19,262.66Z"/><path class="cls-2" d="M466.66,442.7l11.38-1v13.05H467.22C466,451,466.89,447.07,466.66,442.7Z"/><path class="cls-2" d="M412.57,321.62V313c4.41-1.67,9-1.57,13.75-1.34,1.15,3.18.45,6.29.51,10Z"/><path class="cls-2" d="M492.77,359.13V371.4l-10.65,1.33c-1.17-4.29-.64-8.19-.43-12.21C485.2,359.17,488.66,359,492.77,359.13Z"/><path class="cls-2" d="M478.1,458.53v12.84h-11V459.25Z"/><path class="cls-2" d="M492.58,303.42c-3.67.5-7.06,1.64-11,.89V292.57c3.43-.88,6.92-1.8,11-1.14Z"/><path class="cls-2" d="M513.66,406.77h10.92v12.16l-11,.74A41,41,0,0,1,513.66,406.77Z"/><path class="cls-2" d="M523.09,301.25a24.91,24.91,0,0,1-11,1.2c-1.16-3.9-.73-7.82-.49-12l10.83-1.2C523.74,293.39,522.84,297.32,523.09,301.25Z"/><path class="cls-2" d="M493.58,454H482.49V442.07c3.57-1,7.18-.66,11.09-.4Z"/><path class="cls-2" d="M513.16,753.24V765c-3.66,1.18-7.25.67-11.18.37V753.55C505.46,752.48,509.06,753,513.16,753.24Z"/><path class="cls-2" d="M448.49,320.2V310h13.63c1.07,2.64.6,5.59.2,8.87Z"/><path class="cls-2" d="M477.16,304.49c-3.86.25-7.1,1.65-10.92.73V293.39l10.92-1.22Z"/><path class="cls-2" d="M513.07,769.81v12.06H502.21c-1.14-3.9-.35-7.82-.49-12.06Z"/><path class="cls-2" d="M508.23,374.72v11.92c-3.47.95-6.93.66-10.63.41-1.12-3.79-.9-7.54-.48-11.44C500.73,374.11,504.32,374.61,508.23,374.72Z"/><path class="cls-2" d="M508.09,370.4l-10.82,1.23a41.4,41.4,0,0,1-.09-12.37l10.91-1.08Z"/><path class="cls-2" d="M512.43,370.68v-12.3l11.13-.91c.93,4,.52,7.76.28,12Z"/><path class="cls-2" d="M411.93,335.25v-8.83l14.35-1.3c1.06,3.05.54,5.83,0,9.26Z"/><path class="cls-2" d="M430.94,320.86V311h13.18v8.75C440,320.71,435.8,321.6,430.94,320.86Z"/><path class="cls-2" d="M448.61,332.9V324c4.53-1.52,8.88-.64,13.18-1,1.65,3,.56,5.83.81,8.75C457.86,333.55,453.39,332.51,448.61,332.9Z"/><path class="cls-2" d="M567.09,330.12h12.39a22.43,22.43,0,0,1,.38,9.09c-4.14.43-8.14,1.55-12.51,1A24.61,24.61,0,0,1,567.09,330.12Z"/><path class="cls-2" d="M444,324.5a19.59,19.59,0,0,1,0,8.75,50.42,50.42,0,0,1-13.38.35,9.88,9.88,0,0,1,.61-8.22C435.37,324.78,439.52,323.44,444,324.5Z"/><path class="cls-2" d="M534.51,341.67a18.63,18.63,0,0,1-.25-8.88c3.93-1.63,8-.79,12.65-.86.14,2.88.27,5.53.44,8.81C543,342.21,538.73,341.31,534.51,341.67Z"/><path class="cls-2" d="M577.75,302.8c1.85,3.33,1.29,6.07,1.2,9.3l-12.08,1.34c-1.51-3.25-1-6.11-1-9.38Z"/><path class="cls-2" d="M563.21,340.36l-11.46.62c-1.9-2.87-1.48-6.06-1.17-9.5,3.78-1.13,7.6-.44,11.46-.57C563.81,333.79,563.84,336.75,563.21,340.36Z"/><path class="cls-2" d="M523.3,305.62a22.46,22.46,0,0,1,0,9.59l-11.48,1.15v-9.19C515.37,304.89,519.24,306.05,523.3,305.62Z"/><path class="cls-2" d="M466.35,345.24a21.23,21.23,0,0,1,.06-9.19l11-1.11c1.36,3.35.68,6.44.52,9.58C474,345.93,470.37,345.42,466.35,345.24Z"/><path class="cls-2" d="M566.93,326.43v-8.94c3.78-1.81,7.72-1.1,11.71-.91,1.06,3,.63,5.86.44,9.17Z"/><path class="cls-2" d="M449.07,231v9.35l-9.21,1.26V226.43Z"/><path class="cls-2" d="M523.79,328.85h-11.5c-1.32-2.8-.79-5.61-.37-8.64,3.62-1.35,7.28-.92,11.07-.8C524.51,322.37,523.68,325.36,523.79,328.85Z"/><path class="cls-2" d="M546,318.55c.44,3.22.77,6,0,9.12l-11,.94c-1.85-2.9-.9-5.85-.84-8.94A34,34,0,0,1,546,318.55Z"/><path class="cls-2" d="M546,314.06c-3.73,1.8-7.58,1.22-11.52,1.13-1.13-2.91-.8-5.71-.23-8.67,3.77-1.52,7.69-.51,11.59-1.18A20.86,20.86,0,0,1,546,314.06Z"/><path class="cls-2" d="M550.45,305l10.59-.91c2.55,2.48,1.33,5.65,1.58,8.83-4,.88-7.82,1.93-12,1.14C549.69,311.15,550,308.33,550.45,305Z"/><path class="cls-2" d="M562.64,317.57v9.19H550.43v-8C554.28,317.79,558.12,316.94,562.64,317.57Z"/><path class="cls-2" d="M492.46,334.2a25.84,25.84,0,0,1,.17,10H482c-1-3-.74-5.88-.13-9.11Z"/><path class="cls-2" d="M523.69,342.34H512.48c-.28-3.07-.54-5.87-.81-8.83,4.21-1.13,8-.69,12-.48Z"/><path class="cls-2" d="M497.07,320.53h10.54c1.35,2.84.45,5.79.54,9.07H497.07Z"/><path class="cls-2" d="M496.84,333.92H507.7c1.13,3,.88,5.93.33,9.27H497.4C496.16,340.38,497,337.42,496.84,333.92Z"/><path class="cls-2" d="M511.44,286.11v-8a23.57,23.57,0,0,1,11-1.3c1,2.88.6,5.7.32,8.68C519.08,286.65,515.48,286.19,511.44,286.11Z"/><path class="cls-2" d="M463.54,252c-4,.46-7.21,1.61-10.67.82a15.62,15.62,0,0,1,0-8.31c3.26-1.65,6.66-.58,10-1C464.44,246.34,463.41,249,463.54,252Z"/><path class="cls-2" d="M496.16,278.66c3.87-.13,7.22-1.85,10.92-.69a18.41,18.41,0,0,1,0,8.19c-3.4,1.59-6.94.79-10.46,1.06C495.29,284.42,495.87,281.77,496.16,278.66Z"/><path class="cls-2" d="M511.59,273.37v-12c4.22,4,11.91,2.68,11.41,10.85C519.14,274,515.54,273.63,511.59,273.37Z"/><path class="cls-2" d="M481.51,288.1v-8.36l10.45-1.3c1.37,3,.63,5.61.68,8.17C489,288.39,485.54,288.18,481.51,288.1Z"/><path class="cls-2" d="M477.11,255.37v8a30.67,30.67,0,0,1-10.59.38c-1-2.65-.57-5.11-.3-7.65C469.93,254.67,473.38,255.24,477.11,255.37Z"/><path class="cls-2" d="M496,266.13l11.12-.65v7.68a19.17,19.17,0,0,1-10.72,1.17C495.37,271.77,495.92,269.24,496,266.13Z"/><path class="cls-2" d="M426,245.78h9.9c1.11,2.67.51,5.29.39,8.11l-9.38,1.1C425.33,252.06,426.45,249.22,426,245.78Z"/><path class="cls-2" d="M466.05,349.53l11.28-.86a9.3,9.3,0,0,1,.29,7.32l-10.45,1.28C464.93,354.89,466.08,352.39,466.05,349.53Z"/><path class="cls-2" d="M412.65,272.1a18.86,18.86,0,0,1,9.87-1c.94,2.57.52,5.1.3,7.95-3.24.55-6.37,1.76-9.87.94C412,277.41,412.4,274.89,412.65,272.1Z"/><path class="cls-2" d="M422.8,258.79v8c-3.28,1.37-6.45.89-9.74.86-1.06-2.72-.63-5.33-.17-8.39Z"/><path class="cls-2" d="M412.92,246.73h9.46c1.23,2.52.67,5.17.34,8.15H413C412,252.29,412.68,249.82,412.92,246.73Z"/><path class="cls-2" d="M412.71,235.4a19.36,19.36,0,0,1,10-1.19v8.15l-9.42.75C411.89,240.26,412.84,237.8,412.71,235.4Z"/><path class="cls-2" d="M439.82,290.77v-8.16c3.15-.1,5.93-1.57,9.1-.74a20.22,20.22,0,0,1-.15,8.66A22.48,22.48,0,0,1,439.82,290.77Z"/><path class="cls-2" d="M492.84,348.62v5.79c-3.26,2.15-6.94,1.52-10.52,1.65-1.52-2.47-.61-4.78-.77-7.44Z"/><path class="cls-2" d="M466.62,240.57l10.54,5.32V251l-9.8.79C466,248.43,467.21,245,466.62,240.57Z"/><path class="cls-2" d="M426.61,266.63a16.22,16.22,0,0,1,0-8.22l8.51-.91c1,3,.65,5.67.34,8.45C432.69,267.35,429.82,266.81,426.61,266.63Z"/><path class="cls-2" d="M439.75,270.06l8.92-.95a17.09,17.09,0,0,1,.18,8.69,19.31,19.31,0,0,1-8.68.4C439.08,275.67,439.66,273.13,439.75,270.06Z"/><path class="cls-2" d="M426.61,279.23a16.85,16.85,0,0,1,0-8.2l8.46-1.09c1.23,3,.56,5.62.57,8.19C432.68,279.89,429.82,279.43,426.61,279.23Z"/><path class="cls-2" d="M453.25,281.71l8.43-.83c1.84,2.85.66,5.69.91,8.51-3.15,1.1-6,.87-8.88.54C452.54,287.35,453.12,284.8,453.25,281.71Z"/><path class="cls-2" d="M426.34,242.19v-7.94l8.77-1.08c1.1,2.78.67,5.27.42,7.86C432.79,242.93,429.83,242.57,426.34,242.19Z"/><path class="cls-2" d="M462.63,264.73h-9.2v-7.85c2.64-1.26,5.5-.73,8.43-.63C463.37,258.89,462.42,261.56,462.63,264.73Z"/><path class="cls-2" d="M435.46,229.67h-8.68c-1.13-2.89-.7-5.84-.17-9.79C430.42,222.67,436.78,221.71,435.46,229.67Z"/><path class="cls-2" d="M496.1,262v-7.44c4.15,1.74,7.95,3.2,11.72,6.27C503.82,262.8,500.2,261.71,496.1,262Z"/><path class="cls-2" d="M453.28,240.44v-6.77c3.89,1.19,7.3,2.22,10,5.84C459.67,241,456.71,240.5,453.28,240.44Z"/><path class="cls-1" d="M708.91,715.2h54.71v35.53H708.91Z"/><path class="cls-1" d="M635.06,686V650.7h54.58V686Z"/><path class="cls-1" d="M706.84,688.05v-39.3h58.82v39.3Zm54.85-35.19H711v31.2h50.69Z"/><path class="cls-1" d="M691.78,713.37v39.28H633.17V713.37Zm-4,4h-50.6v31.34h50.6Z"/><path class="cls-1" d="M74.75,635.61c-2.35,5.73-5.15,11.31-5.74,19.61-3.87-11.19-6.68-20.43-8.21-30.44l5.33-.77c-2.32,3.55-3.6,6.92-.74,10.31,2.67,3.16,6,2.29,9.31,1.24Z"/><path class="cls-1" d="M75.79,695.63c-6.38-2.84-11.06-8.33-17.63-11,4.07.67,6.89-1,9.17-4.49l8.39,15.59Z"/><path class="cls-1" d="M44.47,635.8c3.63-1.07,6.09-2.84,6.49-7.35,1.28,6.41,2.36,11.87,3.71,18.67Z"/><path class="cls-1" d="M100.32,715.69c-1-1.44-1.95-2.87-2.79-4.11.54-1.87,1.83-2.07,3.12-2.53.19,2.05.37,3.94.55,5.83Z"/><path class="cls-1" d="M54.63,681.85l1.65,1.55c-1.23.79-1.74-.31-2.49-.61Z"/><path class="cls-1" d="M101.64,717.31l-1.32-1.63c.3-.26.59-.53.88-.8l1.27,1.67Z"/><path class="cls-1" d="M104.22,705.85l-1.19.32c0-.4.09-.8.14-1.21Z"/><path class="cls-1" d="M75.72,695.69a3.11,3.11,0,0,0,.18.29s-.06-.17-.12-.35Z"/><path class="cls-1" d="M74.7,635.56l.38-.69.38.46-.71.28Z"/><path class="cls-1" d="M920,635.12c4.67,1.76,8,2.16,10.5-1s1.68-6.36-1-9.83l5.46.28c-1.44,10.17-4.5,19.51-7.91,30C925.61,647.31,924.09,641.4,920,635.12Z"/><path class="cls-1" d="M920.75,694.69l7.54-14.57c2.34,3.32,5.09,5.14,9.37,4.07l-16.36,11A7,7,0,0,0,920.75,694.69Z"/><path class="cls-1" d="M944.78,627.34c-.45,4.7,2.29,7.11,6.37,8.58l-10,11.28C942.42,640.12,943.56,633.94,944.78,627.34Z"/><path class="cls-1" d="M894.59,708.2l4,2.71L895,716.56C894.83,713.18,894.73,711.12,894.59,708.2Z"/><path class="cls-1" d="M920.79,670.16c-.59,1.29-1.18,2.57-2.08,4.55-.54-2.31-.92-3.92-1.32-5.65C918.76,668.6,919.76,669.19,920.79,670.16Z"/><path class="cls-1" d="M892.45,705c0,.39.09.79.13,1.18l-1.13-.43Z"/><path class="cls-1" d="M921.3,695.23l-1,.38c.16-.31.31-.62.47-.92A7,7,0,0,1,921.3,695.23Z"/><path class="cls-1" d="M919.71,634l-.29.29c-.09-.1-.24-.21-.24-.32s.18-.19.27-.29C919.54,633.83,919.62,633.94,919.71,634Z"/><path class="cls-1" d="M940.19,683.07l-.18.69-.47-.3.75-.3Z"/><path class="cls-1" d="M63,295.4c-.08.12-.11.25-.2.31s-.21,0-.32,0l.19-.6Z"/><path class="cls-1" d="M221.42,142.72l-18,14.46c-3-9.83-5.81-18.93-9-29.28Z"/><path class="cls-2" d="M761.69,652.86v31.2H711v-31.2Z"/><path class="cls-2" d="M687.73,717.39v31.34h-50.6V717.39Z"/></g><g id="Mombasa"><path class="cls-2" d="M239.47,983.31,259,933.93h24.73v3.39a15.28,15.28,0,0,0-4.53.55,4.79,4.79,0,0,0-2.67,2,9.3,9.3,0,0,0-1.23,3.94,57.2,57.2,0,0,0-.29,6.31V983a50.89,50.89,0,0,0,.34,6.7,8.13,8.13,0,0,0,1.35,3.81,4.86,4.86,0,0,0,2.92,1.78,27.28,27.28,0,0,0,5,.5v3.39H252.85v-3.39a23.72,23.72,0,0,0,5-.55,5.36,5.36,0,0,0,3-1.73,7.17,7.17,0,0,0,1.4-3.6,47,47,0,0,0,.34-6.31V943.93h-.43L239.39,1000h-6.27l-23.55-56.07h-.34v39a50.89,50.89,0,0,0,.34,6.7,8.24,8.24,0,0,0,1.36,3.81,4.83,4.83,0,0,0,2.92,1.78,27.28,27.28,0,0,0,5,.5v3.39H192.8v-3.39a24.39,24.39,0,0,0,5.08-.55,5.4,5.4,0,0,0,3-1.73,7.26,7.26,0,0,0,1.4-3.6,47,47,0,0,0,.34-6.31V949.52a43.92,43.92,0,0,0-.34-5.93,9.17,9.17,0,0,0-1.27-3.77,4.94,4.94,0,0,0-2.67-2,15.66,15.66,0,0,0-4.62-.55v-3.39H219.4l19.73,49.38Z"/><path class="cls-2" d="M338.91,933.08a38.23,38.23,0,0,1,14.24,2.63,36,36,0,0,1,11.47,7.2,33.53,33.53,0,0,1,7.67,10.76,32.14,32.14,0,0,1,2.79,13.38,29.85,29.85,0,0,1-2.83,12.88,33.63,33.63,0,0,1-7.71,10.46,36.62,36.62,0,0,1-11.48,7,40.07,40.07,0,0,1-28.29,0,37,37,0,0,1-11.52-7,32.42,32.42,0,0,1-7.71-10.46,30.26,30.26,0,0,1-2.79-12.88,32.14,32.14,0,0,1,2.79-13.38,33.53,33.53,0,0,1,7.67-10.76,35.9,35.9,0,0,1,11.47-7.2A38.22,38.22,0,0,1,338.91,933.08Zm0,61.41a20.37,20.37,0,0,0,8.9-1.9,19.23,19.23,0,0,0,6.78-5.42,24.91,24.91,0,0,0,4.27-8.56,40,40,0,0,0,1.49-11.31,44.08,44.08,0,0,0-1.49-11.9,27.55,27.55,0,0,0-4.27-9.06,19,19,0,0,0-6.78-5.76,21,21,0,0,0-17.83,0,19.1,19.1,0,0,0-6.74,5.76A27.35,27.35,0,0,0,319,955.4a44.08,44.08,0,0,0-1.49,11.9A40,40,0,0,0,319,978.61a24.74,24.74,0,0,0,4.27,8.56,19.28,19.28,0,0,0,6.74,5.42A20.23,20.23,0,0,0,338.91,994.49Z"/><path class="cls-2" d="M439.63,983.31l19.57-49.38h24.73v3.39a15.23,15.23,0,0,0-4.53.55,4.79,4.79,0,0,0-2.67,2,9.3,9.3,0,0,0-1.23,3.94,54.83,54.83,0,0,0-.29,6.31V983a53,53,0,0,0,.33,6.7,8.24,8.24,0,0,0,1.36,3.81,4.86,4.86,0,0,0,2.92,1.78,27.28,27.28,0,0,0,5,.5v3.39H453v-3.39a23.72,23.72,0,0,0,5-.55,5.39,5.39,0,0,0,3-1.73,7.26,7.26,0,0,0,1.4-3.6,47.27,47.27,0,0,0,.33-6.31V943.93h-.42L439.55,1000h-6.27l-23.55-56.07h-.34v39a50.89,50.89,0,0,0,.34,6.7,8.24,8.24,0,0,0,1.35,3.81,4.88,4.88,0,0,0,2.93,1.78,27.28,27.28,0,0,0,5,.5v3.39H393v-3.39a24.39,24.39,0,0,0,5.08-.55,5.4,5.4,0,0,0,3-1.73,7.16,7.16,0,0,0,1.39-3.6,45.37,45.37,0,0,0,.34-6.31V949.52a42.33,42.33,0,0,0-.34-5.93,9,9,0,0,0-1.27-3.77,4.88,4.88,0,0,0-2.66-2,15.66,15.66,0,0,0-4.62-.55v-3.39h25.66l19.74,49.38Z"/><path class="cls-2" d="M502.9,999.15v-3.39a22.92,22.92,0,0,0,4.62-.5,5.55,5.55,0,0,0,2.71-1.44,5.44,5.44,0,0,0,1.31-2.88,27.56,27.56,0,0,0,.34-4.83V947a36,36,0,0,0-.25-4.78,6.09,6.09,0,0,0-1.06-2.88,4,4,0,0,0-2.2-1.44,20.22,20.22,0,0,0-3.69-.55v-3.39h27.19q12.79,0,19.7,4.11t6.9,11.73q0,10.08-14.48,14.23v.34a25.61,25.61,0,0,1,8.42,1.31,18.62,18.62,0,0,1,6.4,3.69,16.52,16.52,0,0,1,4.06,5.59,17,17,0,0,1,1.44,7,13.64,13.64,0,0,1-2.07,7.54,16.85,16.85,0,0,1-6,5.42q-7.54,4.23-20.76,4.23Zm26.43-36.84a26.78,26.78,0,0,0,6.61-.72,14.52,14.52,0,0,0,4.74-2.08q4.07-2.79,4.07-8.72,0-6.18-3-8.94t-9.83-2.75h-6q-1.53,0-1.53,1.44v21.77ZM536.11,994q13.64,0,13.64-12.29,0-7.53-4.92-11a16.89,16.89,0,0,0-6.56-2.54,54,54,0,0,0-9.87-.76h-4.07v16.94c0,3.5.91,6,2.71,7.45S531.87,994,536.11,994Z"/><path class="cls-2" d="M621.49,979.42h-24q-4,9-4,12.45c0,1.69.63,2.77,1.9,3.22a18.25,18.25,0,0,0,5.72.67v3.39H578v-3.39a22.8,22.8,0,0,0,3.52-.67,9.52,9.52,0,0,0,2.62-1.19,7.39,7.39,0,0,0,2-2,17,17,0,0,0,1.61-3L610,933.08h6.27l20.24,49.47q1.78,4.32,3,6.78a13.39,13.39,0,0,0,2.62,3.77,7.79,7.79,0,0,0,3.22,1.82,26.79,26.79,0,0,0,4.7.76v3.47H618v-3.47a20,20,0,0,0,5.84-.85,2.62,2.62,0,0,0,1.78-2.71,10.77,10.77,0,0,0-.59-3q-.6-1.86-1.61-4.57Zm-22-5.08h20.16l-9.75-25.67h-.33Z"/><path class="cls-2" d="M664.86,977.55h3.3q1.19,8.06,6.44,12.67a18.91,18.91,0,0,0,13,4.61,20.53,20.53,0,0,0,5.76-.76,14,14,0,0,0,4.49-2.16,10,10,0,0,0,2.88-3.3,9.82,9.82,0,0,0,.38-7.8,7.72,7.72,0,0,0-2.42-2.88,24.91,24.91,0,0,0-4.87-2.83q-3.09-1.44-8-3.31-9.91-3.81-14.65-8.85a16.77,16.77,0,0,1-4.75-11.9,17.11,17.11,0,0,1,1.53-7.28,16.47,16.47,0,0,1,4.27-5.68,19.73,19.73,0,0,1,6.61-3.68,26.15,26.15,0,0,1,8.51-1.32,24.27,24.27,0,0,1,8.14,1.36A29.85,29.85,0,0,1,703,938.5l1.53-4.23h2l.93,18.3h-3.3q-2-6.95-6.35-10.63a14.93,14.93,0,0,0-10-3.69,13.3,13.3,0,0,0-8.51,2.58,8.54,8.54,0,0,0-2.67,9.83,7.09,7.09,0,0,0,2.2,2.67,23.15,23.15,0,0,0,4.41,2.58q2.79,1.32,7.2,2.92a82.2,82.2,0,0,1,10.12,4.62,30.57,30.57,0,0,1,6.86,5,18.09,18.09,0,0,1,3.94,5.63,16.34,16.34,0,0,1,1.27,6.52,16.75,16.75,0,0,1-1.86,7.88,18.29,18.29,0,0,1-5.21,6.1,25.83,25.83,0,0,1-8,4,34.18,34.18,0,0,1-10.21,1.44,28.08,28.08,0,0,1-9.15-1.4,32.27,32.27,0,0,1-8.38-4.53l-1.7,5.08h-2Z"/><path class="cls-2" d="M770.06,979.42h-24q-4,9-4,12.45c0,1.69.63,2.77,1.9,3.22a18.25,18.25,0,0,0,5.72.67v3.39H726.52v-3.39a22.8,22.8,0,0,0,3.52-.67,9.39,9.39,0,0,0,2.62-1.19,7.25,7.25,0,0,0,2-2,16.42,16.42,0,0,0,1.61-3l22.28-55.82h6.27l20.24,49.47q1.79,4.32,3,6.78a13.4,13.4,0,0,0,2.63,3.77,7.66,7.66,0,0,0,3.22,1.82,26.63,26.63,0,0,0,4.7.76v3.47h-32v-3.47a19.89,19.89,0,0,0,5.84-.85,2.62,2.62,0,0,0,1.78-2.71,10.77,10.77,0,0,0-.59-3c-.4-1.24-.93-2.76-1.61-4.57Zm-22-5.08H768.2l-9.74-25.67h-.34Z"/></g></g></g></svg>